<svg width="497" height="497" viewBox="0 0 497 497" fill="none" xmlns="http://www.w3.org/2000/svg">
<circle cx="248.5" cy="248.5" r="248.5" fill="#7D5FFF"/>
<g filter="url(#filter0_d)">
<path d="M248.086 261.336C242.021 268.598 233.449 274.251 222.368 278.294C211.287 282.262 199.009 284.246 185.532 284.246C171.382 284.246 158.953 281.176 148.247 275.037C137.616 268.823 129.38 259.839 123.54 248.084C117.775 236.329 114.818 222.516 114.668 206.644V195.525C114.668 179.204 117.401 165.091 122.866 153.187C128.407 141.207 136.343 132.073 146.675 125.784C157.082 119.42 169.248 116.238 183.174 116.238C202.565 116.238 217.726 120.88 228.657 130.164C239.588 139.373 246.064 152.812 248.086 170.481H215.293C213.796 161.123 210.464 154.272 205.298 149.93C200.207 145.587 193.169 143.416 184.185 143.416C172.729 143.416 164.007 147.721 158.018 156.331C152.028 164.941 148.996 177.744 148.921 194.739V205.184C148.921 222.329 152.178 235.281 158.691 244.041C165.205 252.801 174.751 257.181 187.329 257.181C199.982 257.181 209.004 254.485 214.395 249.095V220.906H183.735V196.087H248.086V261.336Z" fill="white"/>
</g>
<g filter="url(#filter1_d)">
<path d="M354.586 347.336C348.521 354.598 339.949 360.251 328.868 364.294C317.787 368.262 305.509 370.246 292.032 370.246C277.882 370.246 265.453 367.176 254.747 361.037C244.116 354.823 235.88 345.839 230.04 334.084C224.275 322.329 221.318 308.516 221.168 292.644V281.525C221.168 265.204 223.901 251.091 229.366 239.187C234.907 227.207 242.843 218.073 253.175 211.784C263.582 205.42 275.748 202.238 289.674 202.238C309.065 202.238 324.226 206.88 335.157 216.164C346.088 225.373 352.564 238.812 354.586 256.481H321.793C320.296 247.123 316.964 240.272 311.798 235.93C306.707 231.587 299.669 229.416 290.685 229.416C279.229 229.416 270.507 233.721 264.518 242.331C258.528 250.941 255.496 263.744 255.421 280.739V291.184C255.421 308.329 258.678 321.281 265.191 330.041C271.705 338.801 281.251 343.181 293.829 343.181C306.482 343.181 315.504 340.485 320.895 335.095V306.906H290.235V282.087H354.586V347.336Z" fill="white"/>
</g>
<defs>
<filter id="filter0_d" x="114.668" y="116.238" width="144.418" height="187.008" filterUnits="userSpaceOnUse" color-interpolation-filters="sRGB">
<feFlood flood-opacity="0" result="BackgroundImageFix"/>
<feColorMatrix in="SourceAlpha" type="matrix" values="0 0 0 0 0 0 0 0 0 0 0 0 0 0 0 0 0 0 127 0"/>
<feOffset dx="7" dy="15"/>
<feGaussianBlur stdDeviation="2"/>
<feColorMatrix type="matrix" values="0 0 0 0 0 0 0 0 0 0 0 0 0 0 0 0 0 0 0.25 0"/>
<feBlend mode="normal" in2="BackgroundImageFix" result="effect1_dropShadow"/>
<feBlend mode="normal" in="SourceGraphic" in2="effect1_dropShadow" result="shape"/>
</filter>
<filter id="filter1_d" x="219.168" y="202.238" width="141.418" height="187.008" filterUnits="userSpaceOnUse" color-interpolation-filters="sRGB">
<feFlood flood-opacity="0" result="BackgroundImageFix"/>
<feColorMatrix in="SourceAlpha" type="matrix" values="0 0 0 0 0 0 0 0 0 0 0 0 0 0 0 0 0 0 127 0"/>
<feOffset dx="2" dy="15"/>
<feGaussianBlur stdDeviation="2"/>
<feColorMatrix type="matrix" values="0 0 0 0 0 0 0 0 0 0 0 0 0 0 0 0 0 0 0.25 0"/>
<feBlend mode="normal" in2="BackgroundImageFix" result="effect1_dropShadow"/>
<feBlend mode="normal" in="SourceGraphic" in2="effect1_dropShadow" result="shape"/>
</filter>
</defs>
</svg>
