<?xml version="1.0" encoding="iso-8859-1"?>
<!-- Generator: Adobe Illustrator 19.0.0, SVG Export Plug-In . SVG Version: 6.00 Build 0)  -->
<svg version="1.1" id="Capa_1" xmlns="http://www.w3.org/2000/svg" xmlns:xlink="http://www.w3.org/1999/xlink" x="0px" y="0px"
	 viewBox="0 0 512 512" style="enable-background:new 0 0 512 512;" xml:space="preserve">
<linearGradient id="SVGID_1_" gradientUnits="userSpaceOnUse" x1="0" y1="258.0002" x2="512.0005" y2="258.0002" gradientTransform="matrix(1 0 0 -1 0 514.0004)">
	<stop  offset="0" style="stop-color:#80D8FF"/>
	<stop  offset="0.16" style="stop-color:#88D1FF"/>
	<stop  offset="0.413" style="stop-color:#9FBEFE"/>
	<stop  offset="0.725" style="stop-color:#C4A0FD"/>
	<stop  offset="1" style="stop-color:#EA80FC"/>
</linearGradient>
<path style="fill:url(#SVGID_1_);" d="M506.142,477.851L361.69,333.399c65.813-80.075,61.335-198.944-13.451-273.73h-0.001
	c-79.558-79.559-209.011-79.558-288.569,0c-79.559,79.559-79.559,209.01,0,288.569c74.766,74.766,193.62,79.293,273.731,13.451
	l144.452,144.452c7.814,7.813,20.478,7.811,28.29,0C513.953,498.329,513.953,485.663,506.142,477.851z M87.959,319.948
	c-63.96-63.96-63.96-168.03,0-231.99c63.958-63.958,168.029-63.961,231.99,0c63.96,63.96,63.96,168.03,0,231.99
	C255.99,383.908,151.918,383.907,87.959,319.948z M321.901,203.954c0,11.048-8.956,20.004-20.004,20.004H106.01
	c-11.048,0-20.004-8.956-20.004-20.004s8.956-20.004,20.004-20.004h195.887C312.945,183.95,321.901,192.906,321.901,203.954z"/>
<g>
</g>
<g>
</g>
<g>
</g>
<g>
</g>
<g>
</g>
<g>
</g>
<g>
</g>
<g>
</g>
<g>
</g>
<g>
</g>
<g>
</g>
<g>
</g>
<g>
</g>
<g>
</g>
<g>
</g>
</svg>
