<?xml version="1.0" encoding="iso-8859-1"?>
<!-- Generator: Adobe Illustrator 19.0.0, SVG Export Plug-In . SVG Version: 6.00 Build 0)  -->
<svg version="1.1" id="Capa_1" xmlns="http://www.w3.org/2000/svg" xmlns:xlink="http://www.w3.org/1999/xlink" x="0px" y="0px"
	 viewBox="0 0 512 512" style="enable-background:new 0 0 512 512;" xml:space="preserve">
<linearGradient id="SVGID_1_" gradientUnits="userSpaceOnUse" x1="36" y1="258" x2="476" y2="258" gradientTransform="matrix(1 0 0 -1 0 514)">
	<stop  offset="0" style="stop-color:#80D8FF"/>
	<stop  offset="0.16" style="stop-color:#88D1FF"/>
	<stop  offset="0.413" style="stop-color:#9FBEFE"/>
	<stop  offset="0.725" style="stop-color:#C4A0FD"/>
	<stop  offset="1" style="stop-color:#EA80FC"/>
</linearGradient>
<path style="fill:url(#SVGID_1_);" d="M456,58.755H326V20c0-11.046-8.954-20-20-20H206c-11.046,0-20,8.954-20,20v38.755H56
	c-11.046,0-20,8.954-20,20v78.34c0,11.046,8.954,20,20,20h30V462c0,27.57,22.43,50,50,50h240c27.57,0,50-22.43,50-50V177.095h30
	c11.046,0,20-8.954,20-20v-78.34C476,67.709,467.046,58.755,456,58.755z M226,40h60v18.755h-60V40z M386,462c0,5.514-4.486,10-10,10
	H136c-5.514,0-10-4.486-10-10V177.095h260V462z M436,137.095c-10.717,0-341.452,0-360,0v-38.34h360V137.095z M186,422.473v-195.85
	c0-11.046,8.954-20,20-20s20,8.954,20,20v195.851c0,11.046-8.954,20-20,20S186,433.519,186,422.473z M286,422.473v-195.85
	c0-11.046,8.954-20,20-20s20,8.954,20,20v195.851c0,11.046-8.954,20-20,20S286,433.519,286,422.473z"/>
<g>
</g>
<g>
</g>
<g>
</g>
<g>
</g>
<g>
</g>
<g>
</g>
<g>
</g>
<g>
</g>
<g>
</g>
<g>
</g>
<g>
</g>
<g>
</g>
<g>
</g>
<g>
</g>
<g>
</g>
</svg>
