<?xml version="1.0" encoding="iso-8859-1"?>
<!-- Generator: Adobe Illustrator 19.0.0, SVG Export Plug-In . SVG Version: 6.00 Build 0)  -->
<svg version="1.1" id="Capa_1" xmlns="http://www.w3.org/2000/svg" xmlns:xlink="http://www.w3.org/1999/xlink" x="0px" y="0px"
	 viewBox="0 0 512 512" style="enable-background:new 0 0 512 512;" xml:space="preserve">
<linearGradient id="SVGID_1_" gradientUnits="userSpaceOnUse" x1="36" y1="258" x2="476" y2="258" gradientTransform="matrix(1 0 0 -1 0 514)">
	<stop  offset="0" style="stop-color:#80D8FF"/>
	<stop  offset="0.16" style="stop-color:#88D1FF"/>
	<stop  offset="0.413" style="stop-color:#9FBEFE"/>
	<stop  offset="0.725" style="stop-color:#C4A0FD"/>
	<stop  offset="1" style="stop-color:#EA80FC"/>
</linearGradient>
<path style="fill:url(#SVGID_1_);" d="M426,0H187.91c-5.254,0-10.349,2.141-13.993,5.71L42.007,134.883
	c-3.863,3.784-6.007,9.035-6.007,14.29v313.45C36,489.849,58.43,512,86,512h340c27.57,0,50-22.151,50-49.377V49.377
	C476,22.151,453.57,0,426,0z M167.91,67.578v61.595h-62.9L167.91,67.578z M436,462.623c0,5.171-4.486,9.377-10,9.377H86
	c-5.514,0-10-4.207-10-9.377v-293.45h111.91c11.046,0,20-8.954,20-20V40H426c5.514,0,10,4.207,10,9.377V462.623z"/>
<g>
</g>
<g>
</g>
<g>
</g>
<g>
</g>
<g>
</g>
<g>
</g>
<g>
</g>
<g>
</g>
<g>
</g>
<g>
</g>
<g>
</g>
<g>
</g>
<g>
</g>
<g>
</g>
<g>
</g>
</svg>
