<?xml version="1.0" encoding="iso-8859-1"?>
<!-- Generator: Adobe Illustrator 19.0.0, SVG Export Plug-In . SVG Version: 6.00 Build 0)  -->
<svg version="1.1" id="Capa_1" xmlns="http://www.w3.org/2000/svg" xmlns:xlink="http://www.w3.org/1999/xlink" x="0px" y="0px"
	 viewBox="0 0 512 512" style="enable-background:new 0 0 512 512;" xml:space="preserve">
<linearGradient id="SVGID_1_" gradientUnits="userSpaceOnUse" x1="46" y1="258" x2="466" y2="258" gradientTransform="matrix(1 0 0 -1 0 514)">
	<stop  offset="0" style="stop-color:#80D8FF"/>
	<stop  offset="0.16" style="stop-color:#88D1FF"/>
	<stop  offset="0.413" style="stop-color:#9FBEFE"/>
	<stop  offset="0.725" style="stop-color:#C4A0FD"/>
	<stop  offset="1" style="stop-color:#EA80FC"/>
</linearGradient>
<path style="fill:url(#SVGID_1_);" d="M446,197.809h-20V170C426,76.262,349.738,0,256,0S86,76.262,86,170v27.809H66
	c-11.046,0-20,8.954-20,20V492c0,11.046,8.954,20,20,20h380c11.046,0,20-8.954,20-20V217.809
	C466,206.763,457.046,197.809,446,197.809z M126,170c0-71.682,58.318-130,130-130s130,58.318,130,130v27.809H126V170z M426,472H86
	V237.809h340V472z M256,294.905c-33.084,0-60,26.916-60,60s26.916,60,60,60s60-26.916,60-60S289.084,294.905,256,294.905z
	 M256,374.905c-11.028,0-20-8.972-20-20s8.972-20,20-20c11.028,0,20,8.972,20,20S267.028,374.905,256,374.905z"/>
<g>
</g>
<g>
</g>
<g>
</g>
<g>
</g>
<g>
</g>
<g>
</g>
<g>
</g>
<g>
</g>
<g>
</g>
<g>
</g>
<g>
</g>
<g>
</g>
<g>
</g>
<g>
</g>
<g>
</g>
</svg>
