<?xml version="1.0" encoding="iso-8859-1"?>
<!-- Generator: Adobe Illustrator 19.0.0, SVG Export Plug-In . SVG Version: 6.00 Build 0)  -->
<svg version="1.1" id="Capa_1" xmlns="http://www.w3.org/2000/svg" xmlns:xlink="http://www.w3.org/1999/xlink" x="0px" y="0px"
	 viewBox="0 0 512 512" style="enable-background:new 0 0 512 512;" xml:space="preserve">
<linearGradient id="SVGID_1_" gradientUnits="userSpaceOnUse" x1="0" y1="258" x2="512" y2="258" gradientTransform="matrix(1 0 0 -1 0 514)">
	<stop  offset="0" style="stop-color:#80D8FF"/>
	<stop  offset="0.16" style="stop-color:#88D1FF"/>
	<stop  offset="0.413" style="stop-color:#9FBEFE"/>
	<stop  offset="0.725" style="stop-color:#C4A0FD"/>
	<stop  offset="1" style="stop-color:#EA80FC"/>
</linearGradient>
<path style="fill:url(#SVGID_1_);" d="M205.465,512c-5.305,0-10.392-2.107-14.143-5.858L5.857,320.677
	C2.107,316.927,0,311.839,0,306.535s2.107-10.392,5.857-14.142L292.386,5.865c3.751-3.75,8.838-5.858,14.142-5.858L491.999,0
	c5.305,0,10.393,2.107,14.144,5.858S512,14.696,512,20.001l-0.008,185.472c0,5.304-2.107,10.391-5.857,14.141L219.607,506.142
	C215.856,509.893,210.77,512,205.465,512z M48.284,306.535l157.181,157.181l266.527-266.528l0.007-157.187l-157.187,0.006
	L48.284,306.535z M329.768,182.232c-24.16-24.161-24.16-63.472,0-87.633c24.163-24.16,63.473-24.159,87.634,0
	c24.16,24.161,24.16,63.472,0,87.633C393.239,206.393,353.93,206.393,329.768,182.232z M358.053,122.883
	c-8.564,8.564-8.564,22.5,0,31.064c8.566,8.565,22.501,8.564,31.063,0c8.564-8.564,8.564-22.5,0-31.064
	C380.552,114.319,366.617,114.319,358.053,122.883z"/>
<g>
</g>
<g>
</g>
<g>
</g>
<g>
</g>
<g>
</g>
<g>
</g>
<g>
</g>
<g>
</g>
<g>
</g>
<g>
</g>
<g>
</g>
<g>
</g>
<g>
</g>
<g>
</g>
<g>
</g>
</svg>
