<?xml version="1.0" encoding="iso-8859-1"?>
<!-- Generator: Adobe Illustrator 19.0.0, SVG Export Plug-In . SVG Version: 6.00 Build 0)  -->
<svg version="1.1" id="Capa_1" xmlns="http://www.w3.org/2000/svg" xmlns:xlink="http://www.w3.org/1999/xlink" x="0px" y="0px"
	 viewBox="0 0 512 512" style="enable-background:new 0 0 512 512;" xml:space="preserve">
<linearGradient id="SVGID_1_" gradientUnits="userSpaceOnUse" x1="9.366159e-006" y1="258" x2="512" y2="258" gradientTransform="matrix(1 0 0 -1 0 514)">
	<stop  offset="0" style="stop-color:#80D8FF"/>
	<stop  offset="0.16" style="stop-color:#88D1FF"/>
	<stop  offset="0.413" style="stop-color:#9FBEFE"/>
	<stop  offset="0.725" style="stop-color:#C4A0FD"/>
	<stop  offset="1" style="stop-color:#EA80FC"/>
</linearGradient>
<path style="fill:url(#SVGID_1_);" d="M460.134,512H51.866c-18.089,0-34.567-9.188-44.078-24.576
	c-9.512-15.391-10.361-34.242-2.27-50.426L209.65,28.65C218.485,10.978,236.245,0,256,0s37.515,10.978,46.349,28.65l204.134,408.348
	c8.09,16.184,7.241,35.035-2.271,50.426C494.7,502.813,478.223,512,460.134,512z M256,40c-2.196,0-7.623,0.637-10.572,6.536
	L41.295,454.884c-2.662,5.325-0.524,9.823,0.518,11.51C42.855,468.079,45.92,472,51.866,472h408.267
	c5.946,0,9.012-3.921,10.053-5.606c1.042-1.687,3.18-6.185,0.519-11.509L266.572,46.536C263.623,40.637,258.196,40,256,40z
	 M275.999,326.183v-126.12c0-11.046-8.954-20-20-20c-11.046,0-20,8.954-20,20v126.121c0,11.046,8.954,20,20,20
	C267.045,346.184,275.999,337.229,275.999,326.183z M255.994,369.189c-14.912,0-27,12.088-27,27s12.088,27,27,27
	c14.912,0,27-12.088,27-27S270.905,369.189,255.994,369.189z"/>
<g>
</g>
<g>
</g>
<g>
</g>
<g>
</g>
<g>
</g>
<g>
</g>
<g>
</g>
<g>
</g>
<g>
</g>
<g>
</g>
<g>
</g>
<g>
</g>
<g>
</g>
<g>
</g>
<g>
</g>
</svg>
