<?xml version="1.0" encoding="iso-8859-1"?>
<!-- Generator: Adobe Illustrator 19.0.0, SVG Export Plug-In . SVG Version: 6.00 Build 0)  -->
<svg version="1.1" id="Capa_1" xmlns="http://www.w3.org/2000/svg" xmlns:xlink="http://www.w3.org/1999/xlink" x="0px" y="0px"
	 viewBox="0 0 512 512" style="enable-background:new 0 0 512 512;" xml:space="preserve">
<linearGradient id="SVGID_1_" gradientUnits="userSpaceOnUse" x1="0" y1="258" x2="512" y2="258" gradientTransform="matrix(1 0 0 -1 0 514)">
	<stop  offset="0" style="stop-color:#80D8FF"/>
	<stop  offset="0.16" style="stop-color:#88D1FF"/>
	<stop  offset="0.413" style="stop-color:#9FBEFE"/>
	<stop  offset="0.725" style="stop-color:#C4A0FD"/>
	<stop  offset="1" style="stop-color:#EA80FC"/>
</linearGradient>
<path style="fill:url(#SVGID_1_);" d="M512,20v147.788c0,11.046-8.954,20-20,20s-20-8.954-20-20V68.284L311.678,228.606
	c-7.811,7.811-20.474,7.81-28.284,0c-7.811-7.811-7.811-20.474,0-28.284L443.716,40h-99.503c-11.046,0-20-8.954-20-20
	s8.954-20,20-20H492C503.154,0,512,9.115,512,20z M200.322,283.394L40,443.716v-99.503c0-11.046-8.954-20-20-20s-20,8.954-20,20V492
	c0,10.866,8.853,20,20,20h147.788c11.046,0,20-8.954,20-20s-8.954-20-20-20H68.284l160.322-160.322
	c7.811-7.811,7.811-20.474,0-28.284S208.132,275.583,200.322,283.394z"/>
<g>
</g>
<g>
</g>
<g>
</g>
<g>
</g>
<g>
</g>
<g>
</g>
<g>
</g>
<g>
</g>
<g>
</g>
<g>
</g>
<g>
</g>
<g>
</g>
<g>
</g>
<g>
</g>
<g>
</g>
</svg>
