<?xml version="1.0" encoding="iso-8859-1"?>
<!-- Generator: Adobe Illustrator 19.0.0, SVG Export Plug-In . SVG Version: 6.00 Build 0)  -->
<svg version="1.1" id="Capa_1" xmlns="http://www.w3.org/2000/svg" xmlns:xlink="http://www.w3.org/1999/xlink" x="0px" y="0px"
	 viewBox="0 0 512 512" style="enable-background:new 0 0 512 512;" xml:space="preserve">
<linearGradient id="SVGID_1_" gradientUnits="userSpaceOnUse" x1="0" y1="257.9999" x2="512" y2="257.9999" gradientTransform="matrix(1 0 0 -1 0 513.9999)">
	<stop  offset="0" style="stop-color:#80D8FF"/>
	<stop  offset="0.16" style="stop-color:#88D1FF"/>
	<stop  offset="0.413" style="stop-color:#9FBEFE"/>
	<stop  offset="0.725" style="stop-color:#C4A0FD"/>
	<stop  offset="1" style="stop-color:#EA80FC"/>
</linearGradient>
<path style="fill:url(#SVGID_1_);" d="M462.622,41H49.378C22.151,41,0,63.395,0,90.923V330.31c0,27.528,22.151,49.923,49.378,49.923
	h39.734V451c0,8.092,4.877,15.387,12.354,18.481c7.457,3.085,16.067,1.391,21.8-4.351l84.755-84.897h254.601
	c27.227,0,49.378-22.396,49.378-49.923V90.923C512,63.395,489.849,41,462.622,41z M472,330.31c0,5.472-4.207,9.923-9.378,9.923
	H199.728c-5.311,0-10.402,2.112-14.154,5.87l-56.461,56.556v-42.426c0-11.046-8.954-20-20-20H49.378
	c-5.171,0-9.378-4.452-9.378-9.923V90.923C40,85.452,44.207,81,49.378,81h413.244c5.171,0,9.378,4.452,9.378,9.923L472,330.31
	L472,330.31z M283,210.5c0,14.912-12.088,27-27,27s-27-12.088-27-27s12.088-27,27-27C270.912,183.5,283,195.589,283,210.5z
	 M165.49,210.5c0,14.912-12.088,27-27,27s-27-12.088-27-27s12.088-27,27-27C153.401,183.5,165.49,195.589,165.49,210.5z
	 M373.51,183.5c14.912,0,27,12.088,27,27s-12.088,27-27,27s-27-12.088-27-27C346.51,195.589,358.599,183.5,373.51,183.5z"/>
<g>
</g>
<g>
</g>
<g>
</g>
<g>
</g>
<g>
</g>
<g>
</g>
<g>
</g>
<g>
</g>
<g>
</g>
<g>
</g>
<g>
</g>
<g>
</g>
<g>
</g>
<g>
</g>
<g>
</g>
</svg>
