<?xml version="1.0" encoding="iso-8859-1"?>
<!-- Generator: Adobe Illustrator 19.0.0, SVG Export Plug-In . SVG Version: 6.00 Build 0)  -->
<svg version="1.1" id="Capa_1" xmlns="http://www.w3.org/2000/svg" xmlns:xlink="http://www.w3.org/1999/xlink" x="0px" y="0px"
	 viewBox="0 0 512 512" style="enable-background:new 0 0 512 512;" xml:space="preserve">
<linearGradient id="SVGID_1_" gradientUnits="userSpaceOnUse" x1="0" y1="258" x2="512" y2="258" gradientTransform="matrix(1 0 0 -1 0 514)">
	<stop  offset="0" style="stop-color:#80D8FF"/>
	<stop  offset="0.16" style="stop-color:#88D1FF"/>
	<stop  offset="0.413" style="stop-color:#9FBEFE"/>
	<stop  offset="0.725" style="stop-color:#C4A0FD"/>
	<stop  offset="1" style="stop-color:#EA80FC"/>
</linearGradient>
<path style="fill:url(#SVGID_1_);" d="M492,60.163h-98.489V40c0-11.046-8.954-20-20-20s-20,8.954-20,20v20.163H158.489V40
	c0-11.046-8.954-20-20-20s-20,8.954-20,20v20.163H20c-11.046,0-20,8.955-20,20V472c0,11.045,8.954,20,20,20h472
	c11.046,0,20-8.955,20-20V80.163C512,69.118,503.046,60.163,492,60.163z M472,452H40V100.163h78.489v20.164c0,11.046,8.954,20,20,20
	s20-8.954,20-20v-20.164H353.51v20.164c0,11.046,8.954,20,20,20s20-8.954,20-20v-20.164H472V452z M283,234.946
	c0,14.912-12.088,27-27,27s-27-12.088-27-27s12.088-27,27-27C270.912,207.946,283,220.034,283,234.946z M283,352.456
	c0,14.912-12.088,27-27,27s-27-12.088-27-27s12.088-27,27-27C270.912,325.456,283,337.545,283,352.456z M165.49,234.946
	c0,14.912-12.088,27-27,27s-27-12.088-27-27s12.088-27,27-27C153.401,207.946,165.49,220.034,165.49,234.946z M373.51,207.946
	c14.912,0,27,12.088,27,27s-12.088,27-27,27s-27-12.088-27-27C346.51,220.034,358.599,207.946,373.51,207.946z M165.49,352.456
	c0,14.912-12.088,27-27,27s-27-12.088-27-27s12.088-27,27-27C153.401,325.456,165.49,337.545,165.49,352.456z M373.51,325.456
	c14.912,0,27,12.088,27,27s-12.088,27-27,27s-27-12.088-27-27C346.51,337.545,358.599,325.456,373.51,325.456z"/>
<g>
</g>
<g>
</g>
<g>
</g>
<g>
</g>
<g>
</g>
<g>
</g>
<g>
</g>
<g>
</g>
<g>
</g>
<g>
</g>
<g>
</g>
<g>
</g>
<g>
</g>
<g>
</g>
<g>
</g>
</svg>
