<?xml version="1.0" encoding="iso-8859-1"?>
<!-- Generator: Adobe Illustrator 19.0.0, SVG Export Plug-In . SVG Version: 6.00 Build 0)  -->
<svg version="1.1" id="Capa_1" xmlns="http://www.w3.org/2000/svg" xmlns:xlink="http://www.w3.org/1999/xlink" x="0px" y="0px"
	 viewBox="0 0 512 512" style="enable-background:new 0 0 512 512;" xml:space="preserve">
<linearGradient id="SVGID_1_" gradientUnits="userSpaceOnUse" x1="0" y1="258" x2="512" y2="258" gradientTransform="matrix(1 0 0 -1 0 514)">
	<stop  offset="0" style="stop-color:#80D8FF"/>
	<stop  offset="0.16" style="stop-color:#88D1FF"/>
	<stop  offset="0.413" style="stop-color:#9FBEFE"/>
	<stop  offset="0.725" style="stop-color:#C4A0FD"/>
	<stop  offset="1" style="stop-color:#EA80FC"/>
</linearGradient>
<path style="fill:url(#SVGID_1_);" d="M462,86H50c-27.354,0-50,22.214-50,50v240c0,27.57,22.43,50,50,50h412c27.57,0,50-22.43,50-50
	V136C512,108.581,489.681,86,462,86z M423.248,126L256,232.302L88.752,126H423.248z M462,386H50c-5.514,0-10-4.486-10-10V142.41
	l205.271,130.469c6.545,4.161,14.91,4.162,21.457,0L472,142.41V376C472,381.514,467.514,386,462,386z"/>
<g>
</g>
<g>
</g>
<g>
</g>
<g>
</g>
<g>
</g>
<g>
</g>
<g>
</g>
<g>
</g>
<g>
</g>
<g>
</g>
<g>
</g>
<g>
</g>
<g>
</g>
<g>
</g>
<g>
</g>
</svg>
