<?xml version="1.0" encoding="iso-8859-1"?>
<!-- Generator: Adobe Illustrator 19.0.0, SVG Export Plug-In . SVG Version: 6.00 Build 0)  -->
<svg version="1.1" id="Capa_1" xmlns="http://www.w3.org/2000/svg" xmlns:xlink="http://www.w3.org/1999/xlink" x="0px" y="0px"
	 viewBox="0 0 512 512" style="enable-background:new 0 0 512 512;" xml:space="preserve">
<linearGradient id="SVGID_1_" gradientUnits="userSpaceOnUse" x1="0" y1="258" x2="512" y2="258" gradientTransform="matrix(1 0 0 -1 0 514)">
	<stop  offset="0" style="stop-color:#80D8FF"/>
	<stop  offset="0.16" style="stop-color:#88D1FF"/>
	<stop  offset="0.413" style="stop-color:#9FBEFE"/>
	<stop  offset="0.725" style="stop-color:#C4A0FD"/>
	<stop  offset="1" style="stop-color:#EA80FC"/>
</linearGradient>
<path style="fill:url(#SVGID_1_);" d="M256,0C114.507,0,0,114.497,0,256c0,141.492,114.497,256,256,256
	c141.493,0,256-114.497,256-256C512,114.508,397.503,0,256,0z M40,256c0-30.148,6.147-59.348,17.826-86.185
	c25.029,7.261,52.996,13.024,82.924,17.158c-3.468,44.18-3.664,91.384,0,138.053c-29.928,4.135-57.895,9.898-82.924,17.158
	C46.147,315.348,40,286.148,40,256z M180.499,191.402c48.193,4.142,100.5,4.341,151.002,0c3.192,41.87,3.274,86.254,0,129.195
	c-48.299-4.152-100.605-4.332-151.002,0C177.314,278.817,177.219,234.432,180.499,191.402z M371.25,186.973
	c29.928-4.135,57.894-9.898,82.924-17.159C465.853,196.652,472,225.852,472,256s-6.147,59.348-17.826,86.185
	c-25.029-7.261-52.996-13.024-82.924-17.159C374.718,280.85,374.914,233.644,371.25,186.973z M434.203,133.857
	c-20.535,5.497-43.077,9.967-67.066,13.328c-4.004-30.956-9.711-59.892-16.942-85.672
	C384.486,78.155,413.304,103.502,434.203,133.857z M302.939,45.092c10.919,29.587,19.232,66.071,24.485,106.53
	c-45.391,3.849-95.091,4.05-142.848,0c5.253-40.458,13.566-76.942,24.485-106.53C224.302,41.732,240.017,40,256,40
	S287.698,41.732,302.939,45.092z M161.805,61.513c-7.231,25.779-12.938,54.716-16.942,85.672
	c-23.99-3.361-46.531-7.831-67.066-13.328C98.692,103.508,127.507,78.159,161.805,61.513z M77.797,378.142
	c20.535-5.497,43.077-9.967,67.066-13.328c4.004,30.956,9.711,59.893,16.942,85.672C127.517,433.846,98.698,408.501,77.797,378.142z
	 M209.061,466.908c-10.919-29.587-19.232-66.071-24.485-106.53c45.393-3.849,95.092-4.049,142.848,0
	c-5.253,40.459-13.566,76.943-24.485,106.53C287.698,470.269,271.983,472,256,472S224.302,470.268,209.061,466.908z
	 M350.195,450.487c7.231-25.779,12.938-54.716,16.942-85.672c23.989,3.361,46.531,7.831,67.066,13.328
	C413.309,408.49,384.497,433.84,350.195,450.487z"/>
<g>
</g>
<g>
</g>
<g>
</g>
<g>
</g>
<g>
</g>
<g>
</g>
<g>
</g>
<g>
</g>
<g>
</g>
<g>
</g>
<g>
</g>
<g>
</g>
<g>
</g>
<g>
</g>
<g>
</g>
</svg>
