<?xml version="1.0" encoding="iso-8859-1"?>
<!-- Generator: Adobe Illustrator 19.0.0, SVG Export Plug-In . SVG Version: 6.00 Build 0)  -->
<svg version="1.1" id="Capa_1" xmlns="http://www.w3.org/2000/svg" xmlns:xlink="http://www.w3.org/1999/xlink" x="0px" y="0px"
	 viewBox="0 0 512 512" style="enable-background:new 0 0 512 512;" xml:space="preserve">
<linearGradient id="SVGID_1_" gradientUnits="userSpaceOnUse" x1="176" y1="258" x2="336" y2="258" gradientTransform="matrix(1 0 0 -1 0 514)">
	<stop  offset="0" style="stop-color:#80D8FF"/>
	<stop  offset="0.16" style="stop-color:#88D1FF"/>
	<stop  offset="0.413" style="stop-color:#9FBEFE"/>
	<stop  offset="0.725" style="stop-color:#C4A0FD"/>
	<stop  offset="1" style="stop-color:#EA80FC"/>
</linearGradient>
<path style="fill:url(#SVGID_1_);" d="M336,175.436V80c0-44.112-35.888-80-80-80s-80,35.888-80,80v95.436
	c0,37.208,25.532,68.563,59.997,77.467v6.194C201.532,268.002,176,299.357,176,336.564V432c0,44.112,35.888,80,80,80
	s80-35.888,80-80v-95.436c0-37.21-25.536-68.567-60.003-77.469v-6.19C310.464,244.003,336,212.646,336,175.436z M216,175.436V80
	c0-22.056,17.944-40,40-40s40,17.944,40,40v95.436c0,14.774-8.058,27.694-20.003,34.621v-27.5c0-11.046-8.954-20-20-20
	s-20,8.954-20,20v27.497C224.055,203.124,216,190.207,216,175.436z M296,336.564V432c0,22.056-17.944,40-40,40s-40-17.944-40-40
	v-95.436c0-14.771,8.055-27.689,19.997-34.617v27.497c0,11.046,8.954,20,20,20s20-8.954,20-20v-27.5
	C287.942,308.871,296,321.79,296,336.564z"/>
<g>
</g>
<g>
</g>
<g>
</g>
<g>
</g>
<g>
</g>
<g>
</g>
<g>
</g>
<g>
</g>
<g>
</g>
<g>
</g>
<g>
</g>
<g>
</g>
<g>
</g>
<g>
</g>
<g>
</g>
</svg>
