<?xml version="1.0" encoding="iso-8859-1"?>
<!-- Generator: Adobe Illustrator 19.0.0, SVG Export Plug-In . SVG Version: 6.00 Build 0)  -->
<svg version="1.1" id="Capa_1" xmlns="http://www.w3.org/2000/svg" xmlns:xlink="http://www.w3.org/1999/xlink" x="0px" y="0px"
	 viewBox="0 0 512 512" style="enable-background:new 0 0 512 512;" xml:space="preserve">
<linearGradient id="SVGID_1_" gradientUnits="userSpaceOnUse" x1="86" y1="258" x2="426" y2="258" gradientTransform="matrix(1 0 0 -1 0 514)">
	<stop  offset="0" style="stop-color:#80D8FF"/>
	<stop  offset="0.16" style="stop-color:#88D1FF"/>
	<stop  offset="0.413" style="stop-color:#9FBEFE"/>
	<stop  offset="0.725" style="stop-color:#C4A0FD"/>
	<stop  offset="1" style="stop-color:#EA80FC"/>
</linearGradient>
<path style="fill:url(#SVGID_1_);" d="M376,0H136c-27.57,0-50,22.43-50,50v412c0,27.57,22.43,50,50,50h240c27.57,0,50-22.43,50-50
	V50C426,22.43,403.57,0,376,0z M386,462c0,5.514-4.486,10-10,10H136c-5.514,0-10-4.486-10-10V50c0-5.514,4.486-10,10-10h240
	c5.514,0,10,4.486,10,10V462z"/>
<linearGradient id="SVGID_2_" gradientUnits="userSpaceOnUse" x1="146" y1="283.0455" x2="366" y2="283.0455" gradientTransform="matrix(1 0 0 -1 0 514)">
	<stop  offset="0" style="stop-color:#80D8FF"/>
	<stop  offset="0.16" style="stop-color:#88D1FF"/>
	<stop  offset="0.413" style="stop-color:#9FBEFE"/>
	<stop  offset="0.725" style="stop-color:#C4A0FD"/>
	<stop  offset="1" style="stop-color:#EA80FC"/>
</linearGradient>
<path style="fill:url(#SVGID_2_);" d="M346,60H166c-11.046,0-20,8.954-20,20v301.909c0,11.046,8.954,20,20,20h180
	c11.046,0,20-8.954,20-20V80C366,68.954,357.046,60,346,60z M326,361.909H186V100h140V361.909z"/>
<linearGradient id="SVGID_3_" gradientUnits="userSpaceOnUse" x1="216" y1="77.046" x2="296" y2="77.046" gradientTransform="matrix(1 0 0 -1 0 514)">
	<stop  offset="0" style="stop-color:#80D8FF"/>
	<stop  offset="0.16" style="stop-color:#88D1FF"/>
	<stop  offset="0.413" style="stop-color:#9FBEFE"/>
	<stop  offset="0.725" style="stop-color:#C4A0FD"/>
	<stop  offset="1" style="stop-color:#EA80FC"/>
</linearGradient>
<path style="fill:url(#SVGID_3_);" d="M276,416.954h-40c-11.046,0-20,8.954-20,20s8.954,20,20,20h40c11.046,0,20-8.954,20-20
	S287.046,416.954,276,416.954z"/>
<g>
</g>
<g>
</g>
<g>
</g>
<g>
</g>
<g>
</g>
<g>
</g>
<g>
</g>
<g>
</g>
<g>
</g>
<g>
</g>
<g>
</g>
<g>
</g>
<g>
</g>
<g>
</g>
<g>
</g>
</svg>
