<?xml version="1.0" encoding="iso-8859-1"?>
<!-- Generator: Adobe Illustrator 19.0.0, SVG Export Plug-In . SVG Version: 6.00 Build 0)  -->
<svg version="1.1" id="Capa_1" xmlns="http://www.w3.org/2000/svg" xmlns:xlink="http://www.w3.org/1999/xlink" x="0px" y="0px"
	 viewBox="0 0 512.001 512.001" style="enable-background:new 0 0 512.001 512.001;" xml:space="preserve">
<linearGradient id="SVGID_1_" gradientUnits="userSpaceOnUse" x1="41.0005" y1="257.9995" x2="471.0005" y2="257.9995" gradientTransform="matrix(1 0 0 -1 0 514)">
	<stop  offset="0" style="stop-color:#80D8FF"/>
	<stop  offset="0.16" style="stop-color:#88D1FF"/>
	<stop  offset="0.413" style="stop-color:#9FBEFE"/>
	<stop  offset="0.725" style="stop-color:#C4A0FD"/>
	<stop  offset="1" style="stop-color:#EA80FC"/>
</linearGradient>
<path style="fill:url(#SVGID_1_);" d="M380.233,410.812v51.811c0,27.227-22.396,49.378-49.923,49.378H90.924
	C63.397,512,41.001,489.849,41.001,462.622V49.378C41.001,22.151,63.397,0,90.924,0h239.387c27.527,0,49.923,22.151,49.923,49.378
	v51.811c0,11.046-8.954,20-20,20s-20-8.954-20-20V49.378c0-5.171-4.451-9.378-9.923-9.378H90.924c-5.471,0-9.923,4.207-9.923,9.378
	v413.244c0,5.171,4.452,9.378,9.923,9.378h239.387c5.472,0,9.923-4.207,9.923-9.378v-51.811c0-11.046,8.954-20,20-20
	S380.233,399.766,380.233,410.812z M451.001,236H259.773l71.251-69.482c7.908-7.711,8.067-20.374,0.355-28.281
	c-7.712-7.909-20.374-8.068-28.281-0.355l-106.444,103.8c-8.049,7.841-8.047,20.797,0,28.637L303.098,374.12
	c7.907,7.712,20.571,7.553,28.281-0.355c7.712-7.907,7.553-20.57-0.355-28.281L259.773,276h191.228c11.046,0,20-8.954,20-20
	S462.047,236,451.001,236z"/>
<g>
</g>
<g>
</g>
<g>
</g>
<g>
</g>
<g>
</g>
<g>
</g>
<g>
</g>
<g>
</g>
<g>
</g>
<g>
</g>
<g>
</g>
<g>
</g>
<g>
</g>
<g>
</g>
<g>
</g>
</svg>
