<?xml version="1.0" encoding="iso-8859-1"?>
<!-- Generator: Adobe Illustrator 19.0.0, SVG Export Plug-In . SVG Version: 6.00 Build 0)  -->
<svg version="1.1" id="Capa_1" xmlns="http://www.w3.org/2000/svg" xmlns:xlink="http://www.w3.org/1999/xlink" x="0px" y="0px"
	 viewBox="0 0 512 512" style="enable-background:new 0 0 512 512;" xml:space="preserve">
<linearGradient id="SVGID_1_" gradientUnits="userSpaceOnUse" x1="0" y1="257.9998" x2="512" y2="257.9998" gradientTransform="matrix(1 0 0 -1 0 513.9998)">
	<stop  offset="0" style="stop-color:#80D8FF"/>
	<stop  offset="0.16" style="stop-color:#88D1FF"/>
	<stop  offset="0.413" style="stop-color:#9FBEFE"/>
	<stop  offset="0.725" style="stop-color:#C4A0FD"/>
	<stop  offset="1" style="stop-color:#EA80FC"/>
</linearGradient>
<path style="fill:url(#SVGID_1_);" d="M479.549,32.452c-43.271-43.27-113.674-43.268-156.943,0L5.858,349.2
	c-3.714,3.712-5.817,8.799-5.851,14.006c0,0.046-0.007,0.091-0.007,0.137v128.655C0,503.045,8.955,512,20.002,512h128.655
	c5.2,0,10.363-2.078,14.144-5.859c10.316-10.316,311.602-311.603,316.748-316.749C522.817,146.124,522.817,75.721,479.549,32.452z
	 M199.923,312.077c7.811,7.811,20.476,7.812,28.288,0l134.325-134.325l36.04,36.039l-249.919,249.92L48.289,363.343l249.919-249.919
	l36.04,36.04L199.923,283.79C192.111,291.601,192.111,304.265,199.923,312.077z M40.004,411.633l60.364,60.363H40.004V411.633z
	 M451.261,161.106l-24.398,24.398L326.496,85.137l24.399-24.398c27.672-27.672,72.697-27.67,100.367,0
	C478.933,88.41,478.933,133.435,451.261,161.106z"/>
<g>
</g>
<g>
</g>
<g>
</g>
<g>
</g>
<g>
</g>
<g>
</g>
<g>
</g>
<g>
</g>
<g>
</g>
<g>
</g>
<g>
</g>
<g>
</g>
<g>
</g>
<g>
</g>
<g>
</g>
</svg>
