<?xml version="1.0" encoding="iso-8859-1"?>
<!-- Generator: Adobe Illustrator 19.0.0, SVG Export Plug-In . SVG Version: 6.00 Build 0)  -->
<svg version="1.1" id="Capa_1" xmlns="http://www.w3.org/2000/svg" xmlns:xlink="http://www.w3.org/1999/xlink" x="0px" y="0px"
	 viewBox="0 0 512 512" style="enable-background:new 0 0 512 512;" xml:space="preserve">
<linearGradient id="SVGID_1_" gradientUnits="userSpaceOnUse" x1="0" y1="258" x2="512" y2="258" gradientTransform="matrix(1 0 0 -1 0 514)">
	<stop  offset="0" style="stop-color:#80D8FF"/>
	<stop  offset="0.16" style="stop-color:#88D1FF"/>
	<stop  offset="0.413" style="stop-color:#9FBEFE"/>
	<stop  offset="0.725" style="stop-color:#C4A0FD"/>
	<stop  offset="1" style="stop-color:#EA80FC"/>
</linearGradient>
<path style="fill:url(#SVGID_1_);" d="M462,76H50C22.43,76,0,98.43,0,126c0,7.142,0,256.163,0,260c0,27.57,22.43,50,50,50h412
	c27.57,0,50-22.43,50-50c0-13.477,0-250.458,0-260C512,98.43,489.57,76,462,76z M50,116h412c5.514,0,10,4.486,10,10v20H40v-20
	C40,120.486,44.486,116,50,116z M472,246H40v-60h432V246z M462,396H50c-5.514,0-10-4.486-10-10V286h432v100
	C472,391.514,467.514,396,462,396z"/>
<g>
</g>
<g>
</g>
<g>
</g>
<g>
</g>
<g>
</g>
<g>
</g>
<g>
</g>
<g>
</g>
<g>
</g>
<g>
</g>
<g>
</g>
<g>
</g>
<g>
</g>
<g>
</g>
<g>
</g>
</svg>
