<?xml version="1.0" encoding="iso-8859-1"?>
<!-- Generator: Adobe Illustrator 19.0.0, SVG Export Plug-In . SVG Version: 6.00 Build 0)  -->
<svg version="1.1" id="Capa_1" xmlns="http://www.w3.org/2000/svg" xmlns:xlink="http://www.w3.org/1999/xlink" x="0px" y="0px"
	 viewBox="0 0 512 512" style="enable-background:new 0 0 512 512;" xml:space="preserve">
<linearGradient id="SVGID_1_" gradientUnits="userSpaceOnUse" x1="0" y1="258" x2="512" y2="258" gradientTransform="matrix(1 0 0 -1 0 514)">
	<stop  offset="0" style="stop-color:#80D8FF"/>
	<stop  offset="0.16" style="stop-color:#88D1FF"/>
	<stop  offset="0.413" style="stop-color:#9FBEFE"/>
	<stop  offset="0.725" style="stop-color:#C4A0FD"/>
	<stop  offset="1" style="stop-color:#EA80FC"/>
</linearGradient>
<path style="fill:url(#SVGID_1_);" d="M512,256c0,11.046-8.954,20-20,20H144.262c-11.046,0-20-8.954-20-20s8.954-20,20-20H492
	C503.046,236,512,244.954,512,256z M144.262,126H492c11.046,0,20-8.954,20-20s-8.954-20-20-20H144.262c-11.046,0-20,8.954-20,20
	S133.216,126,144.262,126z M492,386H144.262c-11.046,0-20,8.954-20,20s8.954,20,20,20H492c11.046,0,20-8.954,20-20
	S503.046,386,492,386z M27,79C12.088,79,0,91.088,0,106s12.088,27,27,27s27-12.088,27-27S41.912,79,27,79z M27,229
	c-14.912,0-27,12.088-27,27c0,14.912,12.088,27,27,27s27-12.088,27-27S41.912,229,27,229z M27,379c-14.912,0-27,12.088-27,27
	s12.088,27,27,27s27-12.088,27-27S41.912,379,27,379z"/>
<g>
</g>
<g>
</g>
<g>
</g>
<g>
</g>
<g>
</g>
<g>
</g>
<g>
</g>
<g>
</g>
<g>
</g>
<g>
</g>
<g>
</g>
<g>
</g>
<g>
</g>
<g>
</g>
<g>
</g>
</svg>
