<?xml version="1.0" encoding="iso-8859-1"?>
<!-- Generator: Adobe Illustrator 19.0.0, SVG Export Plug-In . SVG Version: 6.00 Build 0)  -->
<svg version="1.1" id="Capa_1" xmlns="http://www.w3.org/2000/svg" xmlns:xlink="http://www.w3.org/1999/xlink" x="0px" y="0px"
	 viewBox="0 0 511.999 511.999" style="enable-background:new 0 0 511.999 511.999;" xml:space="preserve">
<linearGradient id="SVGID_1_" gradientUnits="userSpaceOnUse" x1="0" y1="257.9998" x2="511.9994" y2="257.9998" gradientTransform="matrix(1 0 0 -1 0 513.9995)">
	<stop  offset="0" style="stop-color:#80D8FF"/>
	<stop  offset="0.16" style="stop-color:#88D1FF"/>
	<stop  offset="0.413" style="stop-color:#9FBEFE"/>
	<stop  offset="0.725" style="stop-color:#C4A0FD"/>
	<stop  offset="1" style="stop-color:#EA80FC"/>
</linearGradient>
<path style="fill:url(#SVGID_1_);" d="M244.717,413.524L131.82,336.398H20c-11.046,0-20-8.954-20-20V195.621
	c0-11.046,8.954-20,20-20h111.82l112.897-77.126c6.123-4.184,14.061-4.635,20.619-1.172c6.559,3.462,10.663,10.269,10.663,17.686
	v281.999c0,7.417-4.104,14.225-10.663,17.686C258.765,418.164,250.829,417.699,244.717,413.524z M40,296.398h97.999
	c4.026,0,7.957,1.215,11.282,3.485l86.718,59.241V152.895l-86.718,59.241c-3.324,2.27-7.256,3.485-11.282,3.485H40V296.398z
	 M422.56,431.563c119.12-96.124,119.385-254.789,0-351.127c-8.597-6.936-21.187-5.592-28.124,3.005
	c-6.936,8.596-5.592,21.187,3.005,28.124c99.487,80.283,99.455,208.611,0,288.87c-8.597,6.936-9.941,19.528-3.005,28.124
	C401.374,437.155,413.964,438.501,422.56,431.563z M374.447,392.738c92.987-75.036,92.667-198.699,0-273.476
	c-8.596-6.936-21.188-5.591-28.124,3.005s-5.591,21.187,3.005,28.124c72.938,58.859,72.902,152.388,0,211.219
	c-8.597,6.936-9.941,19.528-3.005,28.124C353.26,398.33,365.85,399.676,374.447,392.738z M326.334,353.913
	c66.472-53.64,66.246-142.368,0-195.825c-8.597-6.937-21.188-5.59-28.124,3.005c-6.936,8.596-5.592,21.187,3.005,28.124
	c46.475,37.505,46.434,96.098,0,133.568c-8.597,6.936-9.941,19.528-3.005,28.124C305.147,359.504,317.737,360.85,326.334,353.913z"
	/>
<g>
</g>
<g>
</g>
<g>
</g>
<g>
</g>
<g>
</g>
<g>
</g>
<g>
</g>
<g>
</g>
<g>
</g>
<g>
</g>
<g>
</g>
<g>
</g>
<g>
</g>
<g>
</g>
<g>
</g>
</svg>
