<?xml version="1.0" encoding="iso-8859-1"?>
<!-- Generator: Adobe Illustrator 19.0.0, SVG Export Plug-In . SVG Version: 6.00 Build 0)  -->
<svg version="1.1" id="Capa_1" xmlns="http://www.w3.org/2000/svg" xmlns:xlink="http://www.w3.org/1999/xlink" x="0px" y="0px"
	 viewBox="0 0 512 512" style="enable-background:new 0 0 512 512;" xml:space="preserve">
<linearGradient id="SVGID_1_" gradientUnits="userSpaceOnUse" x1="0" y1="258" x2="512" y2="258" gradientTransform="matrix(1 0 0 -1 0 514)">
	<stop  offset="0" style="stop-color:#80D8FF"/>
	<stop  offset="0.16" style="stop-color:#88D1FF"/>
	<stop  offset="0.413" style="stop-color:#9FBEFE"/>
	<stop  offset="0.725" style="stop-color:#C4A0FD"/>
	<stop  offset="1" style="stop-color:#EA80FC"/>
</linearGradient>
<path style="fill:url(#SVGID_1_);" d="M512,137.334c0-25.609-16.357-47.464-39.17-55.683V20c0-11.046-8.954-20-20-20
	s-20,8.954-20,20v61.651c-22.813,8.219-39.17,30.074-39.17,55.683s16.357,47.464,39.17,55.683V492c0,11.046,8.954,20,20,20
	s20-8.954,20-20V193.017C495.643,184.798,512,162.943,512,137.334z M452.83,156.504c-10.57,0-19.17-8.6-19.17-19.17
	s8.6-19.17,19.17-19.17s19.17,8.6,19.17,19.17S463.4,156.504,452.83,156.504z M276,318.983V20c0-11.046-8.954-20-20-20
	s-20,8.954-20,20v298.983c-22.813,8.219-39.17,30.074-39.17,55.683s16.357,47.464,39.17,55.683V492c0,11.046,8.954,20,20,20
	c11.046,0,20-8.954,20-20v-61.651c22.813-8.219,39.17-30.074,39.17-55.683S298.813,327.202,276,318.983z M256,393.836
	c-10.57,0-19.17-8.6-19.17-19.17s8.6-19.17,19.17-19.17c10.57,0,19.17,8.6,19.17,19.17S266.57,393.836,256,393.836z M79.17,81.651
	V20c0-11.046-8.954-20-20-20s-20,8.954-20,20v61.651C16.357,89.87,0,111.725,0,137.334s16.357,47.464,39.17,55.683V492
	c0,11.046,8.954,20,20,20s20-8.954,20-20V193.017c22.813-8.219,39.17-30.074,39.17-55.683S101.983,89.87,79.17,81.651z
	 M59.17,156.504c-10.57,0-19.17-8.6-19.17-19.17s8.6-19.17,19.17-19.17s19.17,8.6,19.17,19.17S69.74,156.504,59.17,156.504z"/>
<g>
</g>
<g>
</g>
<g>
</g>
<g>
</g>
<g>
</g>
<g>
</g>
<g>
</g>
<g>
</g>
<g>
</g>
<g>
</g>
<g>
</g>
<g>
</g>
<g>
</g>
<g>
</g>
<g>
</g>
</svg>
