<?xml version="1.0" encoding="iso-8859-1"?>
<!-- Generator: Adobe Illustrator 19.0.0, SVG Export Plug-In . SVG Version: 6.00 Build 0)  -->
<svg version="1.1" id="Capa_1" xmlns="http://www.w3.org/2000/svg" xmlns:xlink="http://www.w3.org/1999/xlink" x="0px" y="0px"
	 viewBox="0 0 512 512" style="enable-background:new 0 0 512 512;" xml:space="preserve">
<linearGradient id="SVGID_1_" gradientUnits="userSpaceOnUse" x1="86.0001" y1="257.9999" x2="426.0001" y2="257.9999" gradientTransform="matrix(1 0 0 -1 0 514)">
	<stop  offset="0" style="stop-color:#80D8FF"/>
	<stop  offset="0.16" style="stop-color:#88D1FF"/>
	<stop  offset="0.413" style="stop-color:#9FBEFE"/>
	<stop  offset="0.725" style="stop-color:#C4A0FD"/>
	<stop  offset="1" style="stop-color:#EA80FC"/>
</linearGradient>
<path style="fill:url(#SVGID_1_);" d="M391.177,505.426L256,356.2L120.823,505.426c-5.553,6.129-14.304,8.208-22.018,5.234
	C91.089,507.685,86,500.269,86,491.999V20c0-11.046,8.954-20,20-20h300c11.046,0,20,8.954,20,20v471.999
	c0,8.27-5.089,15.686-12.805,18.661S396.729,511.556,391.177,505.426z M256,306.41c5.647,0,11.031,2.388,14.823,6.573L386,440.13V40
	H126v400.13l115.177-127.147C244.969,308.797,250.353,306.41,256,306.41z"/>
<g>
</g>
<g>
</g>
<g>
</g>
<g>
</g>
<g>
</g>
<g>
</g>
<g>
</g>
<g>
</g>
<g>
</g>
<g>
</g>
<g>
</g>
<g>
</g>
<g>
</g>
<g>
</g>
<g>
</g>
</svg>
