<?xml version="1.0" encoding="iso-8859-1"?>
<!-- Generator: Adobe Illustrator 19.0.0, SVG Export Plug-In . SVG Version: 6.00 Build 0)  -->
<svg version="1.1" id="Capa_1" xmlns="http://www.w3.org/2000/svg" xmlns:xlink="http://www.w3.org/1999/xlink" x="0px" y="0px"
	 viewBox="0 0 512 512" style="enable-background:new 0 0 512 512;" xml:space="preserve">
<linearGradient id="SVGID_1_" gradientUnits="userSpaceOnUse" x1="49.0002" y1="258" x2="462.9998" y2="258" gradientTransform="matrix(1 0 0 -1 0 514)">
	<stop  offset="0" style="stop-color:#80D8FF"/>
	<stop  offset="0.16" style="stop-color:#88D1FF"/>
	<stop  offset="0.413" style="stop-color:#9FBEFE"/>
	<stop  offset="0.725" style="stop-color:#C4A0FD"/>
	<stop  offset="1" style="stop-color:#EA80FC"/>
</linearGradient>
<path style="fill:url(#SVGID_1_);" d="M443,0H129.004C81.435,0,48.142,41.073,49.055,78.036c-0.077,3.175-0.05,350.687-0.05,353.964
	c0,44.112,35.887,80,79.999,80H443c11.046,0,20-8.954,20-20V20C463,8.954,454.046,0,443,0z M129.004,40H423v74.827H127.747
	c-20.705,0-37.668-16.331-38.693-36.792C90.082,56.889,107.607,40,129.004,40z M129.004,472c-22.056,0-40-17.944-40-40V144.594
	c11.448,6.501,24.664,10.234,38.743,10.234H423V472H129.004z"/>
<g>
</g>
<g>
</g>
<g>
</g>
<g>
</g>
<g>
</g>
<g>
</g>
<g>
</g>
<g>
</g>
<g>
</g>
<g>
</g>
<g>
</g>
<g>
</g>
<g>
</g>
<g>
</g>
<g>
</g>
</svg>
