<?xml version="1.0" encoding="iso-8859-1"?>
<!-- Generator: Adobe Illustrator 19.0.0, SVG Export Plug-In . SVG Version: 6.00 Build 0)  -->
<svg version="1.1" id="Capa_1" xmlns="http://www.w3.org/2000/svg" xmlns:xlink="http://www.w3.org/1999/xlink" x="0px" y="0px"
	 viewBox="0 0 512 512" style="enable-background:new 0 0 512 512;" xml:space="preserve">
<linearGradient id="SVGID_1_" gradientUnits="userSpaceOnUse" x1="0" y1="258" x2="512" y2="258" gradientTransform="matrix(1 0 0 -1 0 514)">
	<stop  offset="0" style="stop-color:#80D8FF"/>
	<stop  offset="0.16" style="stop-color:#88D1FF"/>
	<stop  offset="0.413" style="stop-color:#9FBEFE"/>
	<stop  offset="0.725" style="stop-color:#C4A0FD"/>
	<stop  offset="1" style="stop-color:#EA80FC"/>
</linearGradient>
<path style="fill:url(#SVGID_1_);" d="M462.622,467H49.378C22.151,467,0,444.57,0,417V177c0-27.57,22.151-50,49.378-50h100.777
	l30.937-56.309C189.796,54.845,206.33,45,224.241,45h63.518c17.911,0,34.445,9.845,43.15,25.691L361.845,127h100.777
	C489.849,127,512,149.43,512,177v240C512,444.57,489.849,467,462.622,467z M49.378,167C44.207,167,40,171.486,40,177v240
	c0,5.514,4.207,10,9.378,10h413.244c5.171,0,9.378-4.486,9.378-10V177c0-5.514-4.207-10-9.378-10H350.013
	c-7.297,0-14.016-3.975-17.528-10.37l-36.633-66.679c-1.679-3.054-4.779-4.951-8.093-4.951h-63.518c-3.313,0-6.414,1.897-8.092,4.95
	l-36.634,66.68c-3.513,6.396-10.231,10.37-17.528,10.37H49.378z"/>
<linearGradient id="SVGID_2_" gradientUnits="userSpaceOnUse" x1="176" y1="217" x2="336" y2="217" gradientTransform="matrix(1 0 0 -1 0 514)">
	<stop  offset="0" style="stop-color:#80D8FF"/>
	<stop  offset="0.16" style="stop-color:#88D1FF"/>
	<stop  offset="0.413" style="stop-color:#9FBEFE"/>
	<stop  offset="0.725" style="stop-color:#C4A0FD"/>
	<stop  offset="1" style="stop-color:#EA80FC"/>
</linearGradient>
<path style="fill:url(#SVGID_2_);" d="M256,377c-44.112,0-80-35.888-80-80s35.888-80,80-80s80,35.888,80,80S300.112,377,256,377z
	 M256,257c-22.056,0-40,17.944-40,40s17.944,40,40,40s40-17.944,40-40S278.056,257,256,257z"/>
<g>
</g>
<g>
</g>
<g>
</g>
<g>
</g>
<g>
</g>
<g>
</g>
<g>
</g>
<g>
</g>
<g>
</g>
<g>
</g>
<g>
</g>
<g>
</g>
<g>
</g>
<g>
</g>
<g>
</g>
</svg>
