<?xml version="1.0" encoding="iso-8859-1"?>
<!-- Generator: Adobe Illustrator 19.0.0, SVG Export Plug-In . SVG Version: 6.00 Build 0)  -->
<svg version="1.1" id="Capa_1" xmlns="http://www.w3.org/2000/svg" xmlns:xlink="http://www.w3.org/1999/xlink" x="0px" y="0px"
	 viewBox="0 0 512 512" style="enable-background:new 0 0 512 512;" xml:space="preserve">
<linearGradient id="SVGID_1_" gradientUnits="userSpaceOnUse" x1="0" y1="258" x2="512" y2="258" gradientTransform="matrix(1 0 0 -1 0 514)">
	<stop  offset="0" style="stop-color:#80D8FF"/>
	<stop  offset="0.16" style="stop-color:#88D1FF"/>
	<stop  offset="0.413" style="stop-color:#9FBEFE"/>
	<stop  offset="0.725" style="stop-color:#C4A0FD"/>
	<stop  offset="1" style="stop-color:#EA80FC"/>
</linearGradient>
<path style="fill:url(#SVGID_1_);" d="M333.361,426H49.378C22.151,426,0,403.57,0,376V136c0-27.57,22.151-50,49.378-50h283.983
	c27.227,0,49.377,22.43,49.377,50v35.657l102.885-34.613c6.102-2.055,12.82-1.042,18.049,2.715C508.9,143.517,512,149.562,512,156
	v200c0,6.438-3.1,12.483-8.328,16.241c-5.229,3.757-11.946,4.768-18.049,2.715l-102.885-34.613V376
	C382.738,403.57,360.588,426,333.361,426z M49.378,126C44.207,126,40,130.486,40,136v240c0,5.514,4.207,10,9.378,10h283.983
	c5.171,0,9.377-4.486,9.377-10v-63.487c0-13.655,13.423-23.315,26.377-18.956L472,328.17V183.83l-102.885,34.613
	c-12.946,4.353-26.377-5.289-26.377-18.956V136c0-5.514-4.206-10-9.377-10H49.378z"/>
<g>
</g>
<g>
</g>
<g>
</g>
<g>
</g>
<g>
</g>
<g>
</g>
<g>
</g>
<g>
</g>
<g>
</g>
<g>
</g>
<g>
</g>
<g>
</g>
<g>
</g>
<g>
</g>
<g>
</g>
</svg>
