<?xml version="1.0" encoding="iso-8859-1"?>
<!-- Generator: Adobe Illustrator 19.0.0, SVG Export Plug-In . SVG Version: 6.00 Build 0)  -->
<svg version="1.1" id="Capa_1" xmlns="http://www.w3.org/2000/svg" xmlns:xlink="http://www.w3.org/1999/xlink" x="0px" y="0px"
	 viewBox="0 0 512 512" style="enable-background:new 0 0 512 512;" xml:space="preserve">
<linearGradient id="SVGID_1_" gradientUnits="userSpaceOnUse" x1="-0.0026" y1="258.0203" x2="511.9702" y2="258.0203" gradientTransform="matrix(1.0001 0 0 -1.0001 0.0026 514.0339)">
	<stop  offset="0" style="stop-color:#80D8FF"/>
	<stop  offset="0.16" style="stop-color:#88D1FF"/>
	<stop  offset="0.413" style="stop-color:#9FBEFE"/>
	<stop  offset="0.725" style="stop-color:#C4A0FD"/>
	<stop  offset="1" style="stop-color:#EA80FC"/>
</linearGradient>
<path style="fill:url(#SVGID_1_);" d="M167.955,108.026c-7.811-7.811-7.811-20.476,0-28.286l73.898-73.898
	c7.637-7.637,20.354-7.931,28.285,0l73.898,73.898c7.811,7.811,7.811,20.476,0,28.286c-7.812,7.81-20.476,7.809-28.285,0
	l-39.754-39.754V214.46c0,11.047-8.954,20.001-20.001,20.001c-11.047,0-20.001-8.954-20.001-20.001V68.272l-39.754,39.754
	C188.429,115.837,175.765,115.836,167.955,108.026z M315.751,403.97l-39.754,39.754V297.536c0-11.047-8.954-20.001-20.001-20.001
	c-11.047,0-20.001,8.954-20.001,20.001v146.188L196.24,403.97c-7.811-7.811-20.475-7.809-28.285,0
	c-7.811,7.811-7.811,20.476,0,28.286l73.898,73.898c7.642,7.642,20.35,7.935,28.285,0l73.898-73.898
	c7.811-7.811,7.811-20.476,0-28.286C336.226,396.16,323.562,396.159,315.751,403.97z M506.211,241.921
	c-0.021-0.021-0.039-0.045-0.06-0.066l-73.898-73.898c-7.811-7.811-20.475-7.809-28.285,0c-7.811,7.811-7.811,20.476,0,28.286
	l39.754,39.753H297.534c-11.047,0-20.001,8.954-20.001,20.001s8.954,20.001,20.001,20.001H443.72l-39.754,39.753
	c-7.811,7.811-7.811,20.476,0,28.286c7.812,7.811,20.475,7.809,28.285,0l73.898-73.898
	C513.962,262.331,513.917,249.698,506.211,241.921z M68.271,275.999h146.187c11.047,0,20.001-8.954,20.001-20.001
	s-8.954-20.001-20.001-20.001H68.271l39.754-39.753c7.811-7.811,7.811-20.476,0-28.286c-7.811-7.811-20.475-7.811-28.285,0
	L5.84,241.854c-7.718,7.718-7.855,20.431,0,28.286l73.898,73.898c7.809,7.81,20.473,7.81,28.285,0
	c7.811-7.811,7.811-20.476,0-28.286L68.271,275.999z"/>
<g>
</g>
<g>
</g>
<g>
</g>
<g>
</g>
<g>
</g>
<g>
</g>
<g>
</g>
<g>
</g>
<g>
</g>
<g>
</g>
<g>
</g>
<g>
</g>
<g>
</g>
<g>
</g>
<g>
</g>
</svg>
