<?xml version="1.0" encoding="iso-8859-1"?>
<!-- Generator: Adobe Illustrator 19.0.0, SVG Export Plug-In . SVG Version: 6.00 Build 0)  -->
<svg version="1.1" id="Capa_1" xmlns="http://www.w3.org/2000/svg" xmlns:xlink="http://www.w3.org/1999/xlink" x="0px" y="0px"
	 viewBox="0 0 512 512" style="enable-background:new 0 0 512 512;" xml:space="preserve">
<linearGradient id="SVGID_1_" gradientUnits="userSpaceOnUse" x1="0" y1="258" x2="512.0001" y2="258" gradientTransform="matrix(1 0 0 -1 0 514.0001)">
	<stop  offset="0" style="stop-color:#80D8FF"/>
	<stop  offset="0.16" style="stop-color:#88D1FF"/>
	<stop  offset="0.413" style="stop-color:#9FBEFE"/>
	<stop  offset="0.725" style="stop-color:#C4A0FD"/>
	<stop  offset="1" style="stop-color:#EA80FC"/>
</linearGradient>
<path style="fill:url(#SVGID_1_);" d="M492,398.064H20c-7.423,0-14.236-4.111-17.695-10.68c-3.459-6.567-2.997-14.512,1.202-20.633
	l236-344.064C243.236,17.25,249.406,14,256,14s12.764,3.25,16.493,8.688l236,344.064c4.199,6.121,4.662,14.065,1.202,20.633
	C506.236,393.953,499.423,398.064,492,398.064z M57.971,358.064h396.058L256,69.358L57.971,358.064z M512,478
	c0-11.046-8.954-20-20-20H20c-11.046,0-20,8.954-20,20s8.954,20,20,20h472C503.046,498,512,489.046,512,478z"/>
<g>
</g>
<g>
</g>
<g>
</g>
<g>
</g>
<g>
</g>
<g>
</g>
<g>
</g>
<g>
</g>
<g>
</g>
<g>
</g>
<g>
</g>
<g>
</g>
<g>
</g>
<g>
</g>
<g>
</g>
</svg>
