<?xml version="1.0" encoding="iso-8859-1"?>
<!-- Generator: Adobe Illustrator 19.0.0, SVG Export Plug-In . SVG Version: 6.00 Build 0)  -->
<svg version="1.1" id="Capa_1" xmlns="http://www.w3.org/2000/svg" xmlns:xlink="http://www.w3.org/1999/xlink" x="0px" y="0px"
	 viewBox="0 0 512 512" style="enable-background:new 0 0 512 512;" xml:space="preserve">
<linearGradient id="SVGID_1_" gradientUnits="userSpaceOnUse" x1="0" y1="258" x2="512" y2="258" gradientTransform="matrix(1 0 0 -1 0 514)">
	<stop  offset="0" style="stop-color:#80D8FF"/>
	<stop  offset="0.16" style="stop-color:#88D1FF"/>
	<stop  offset="0.413" style="stop-color:#9FBEFE"/>
	<stop  offset="0.725" style="stop-color:#C4A0FD"/>
	<stop  offset="1" style="stop-color:#EA80FC"/>
</linearGradient>
<path style="fill:url(#SVGID_1_);" d="M220,240H20c-11.046,0-20-8.954-20-20V20C0,8.954,8.954,0,20,0h200c11.046,0,20,8.954,20,20
	v200C240,231.046,231.046,240,220,240z M40,200h160V40H40V200z M164.444,184.444H75.556c-11.046,0-20-8.954-20-20V75.556
	c0-11.046,8.954-20,20-20h88.889c11.046,0,20,8.954,20,20v88.889C184.444,175.49,175.49,184.444,164.444,184.444z M95.556,144.444
	h48.889V95.556H95.556V144.444z M492,240H292c-11.046,0-20-8.954-20-20V20c0-11.046,8.954-20,20-20h200c11.046,0,20,8.954,20,20v200
	C512,231.046,503.046,240,492,240z M312,200h160V40H312V200z M436.444,184.444h-88.889c-11.046,0-20-8.954-20-20V75.556
	c0-11.046,8.954-20,20-20h88.889c11.046,0,20,8.954,20,20v88.889C456.444,175.49,447.49,184.444,436.444,184.444z M367.556,144.444
	h48.889V95.556h-48.889V144.444z M220,512H20c-11.046,0-20-8.954-20-20V292c0-11.046,8.954-20,20-20h200c11.046,0,20,8.954,20,20
	v200C240,503.046,231.046,512,220,512z M40,472h160V312H40V472z M164.444,456.444H75.556c-11.046,0-20-8.954-20-20v-88.889
	c0-11.046,8.954-20,20-20h88.889c11.046,0,20,8.954,20,20v88.889C184.444,447.49,175.49,456.444,164.444,456.444z M95.556,416.444
	h48.889v-48.889H95.556V416.444z M312,356.074V312h44.074c11.046,0,20-8.954,20-20s-8.954-20-20-20H292c-11.046,0-20,8.954-20,20
	v64.074c0,11.046,8.954,20,20,20S312,367.12,312,356.074z M512,356.074V292c0-11.046-8.954-20-20-20h-64.074
	c-11.046,0-20,8.954-20,20s8.954,20,20,20H472v44.074c0,11.046,8.954,20,20,20S512,367.12,512,356.074z M376.074,492
	c0-11.046-8.954-20-20-20H312v-44.074c0-11.046-8.954-20-20-20s-20,8.954-20,20V492c0,11.046,8.954,20,20,20h64.074
	C367.12,512,376.074,503.046,376.074,492z M512,492v-64.074c0-11.046-8.954-20-20-20s-20,8.954-20,20V472h-44.074
	c-11.046,0-20,8.954-20,20s8.954,20,20,20H492C503.046,512,512,503.046,512,492z"/>
<g>
</g>
<g>
</g>
<g>
</g>
<g>
</g>
<g>
</g>
<g>
</g>
<g>
</g>
<g>
</g>
<g>
</g>
<g>
</g>
<g>
</g>
<g>
</g>
<g>
</g>
<g>
</g>
<g>
</g>
</svg>
