<?xml version="1.0" encoding="iso-8859-1"?>
<!-- Generator: Adobe Illustrator 19.0.0, SVG Export Plug-In . SVG Version: 6.00 Build 0)  -->
<svg version="1.1" id="Capa_1" xmlns="http://www.w3.org/2000/svg" xmlns:xlink="http://www.w3.org/1999/xlink" x="0px" y="0px"
	 viewBox="0 0 512 512" style="enable-background:new 0 0 512 512;" xml:space="preserve">
<linearGradient id="SVGID_1_" gradientUnits="userSpaceOnUse" x1="0" y1="494" x2="512" y2="494" gradientTransform="matrix(1 0 0 -1 0 514)">
	<stop  offset="0" style="stop-color:#80D8FF"/>
	<stop  offset="0.16" style="stop-color:#88D1FF"/>
	<stop  offset="0.413" style="stop-color:#9FBEFE"/>
	<stop  offset="0.725" style="stop-color:#C4A0FD"/>
	<stop  offset="1" style="stop-color:#EA80FC"/>
</linearGradient>
<path style="fill:url(#SVGID_1_);" d="M492,40H20C8.954,40,0,31.046,0,20S8.954,0,20,0h472c11.046,0,20,8.954,20,20
	S503.046,40,492,40z"/>
<g>
	
		<linearGradient id="SVGID_2_" gradientUnits="userSpaceOnUse" x1="89.112" y1="336.667" x2="422.888" y2="336.667" gradientTransform="matrix(1 0 0 -1 0 514)">
		<stop  offset="0" style="stop-color:#80D8FF"/>
		<stop  offset="0.16" style="stop-color:#88D1FF"/>
		<stop  offset="0.413" style="stop-color:#9FBEFE"/>
		<stop  offset="0.725" style="stop-color:#C4A0FD"/>
		<stop  offset="1" style="stop-color:#EA80FC"/>
	</linearGradient>
	<path style="fill:url(#SVGID_2_);" d="M402.888,197.333H109.112c-11.046,0-20-8.954-20-20s8.954-20,20-20h293.776
		c11.046,0,20,8.954,20,20S413.934,197.333,402.888,197.333z"/>
	
		<linearGradient id="SVGID_3_" gradientUnits="userSpaceOnUse" x1="89.112" y1="179.333" x2="422.888" y2="179.333" gradientTransform="matrix(1 0 0 -1 0 514)">
		<stop  offset="0" style="stop-color:#80D8FF"/>
		<stop  offset="0.16" style="stop-color:#88D1FF"/>
		<stop  offset="0.413" style="stop-color:#9FBEFE"/>
		<stop  offset="0.725" style="stop-color:#C4A0FD"/>
		<stop  offset="1" style="stop-color:#EA80FC"/>
	</linearGradient>
	<path style="fill:url(#SVGID_3_);" d="M402.888,354.667H109.112c-11.046,0-20-8.954-20-20s8.954-20,20-20h293.776
		c11.046,0,20,8.954,20,20S413.934,354.667,402.888,354.667z"/>
</g>
<linearGradient id="SVGID_4_" gradientUnits="userSpaceOnUse" x1="0" y1="22" x2="512" y2="22" gradientTransform="matrix(1 0 0 -1 0 514)">
	<stop  offset="0" style="stop-color:#80D8FF"/>
	<stop  offset="0.16" style="stop-color:#88D1FF"/>
	<stop  offset="0.413" style="stop-color:#9FBEFE"/>
	<stop  offset="0.725" style="stop-color:#C4A0FD"/>
	<stop  offset="1" style="stop-color:#EA80FC"/>
</linearGradient>
<path style="fill:url(#SVGID_4_);" d="M492,512H20c-11.046,0-20-8.954-20-20s8.954-20,20-20h472c11.046,0,20,8.954,20,20
	S503.046,512,492,512z"/>
<g>
</g>
<g>
</g>
<g>
</g>
<g>
</g>
<g>
</g>
<g>
</g>
<g>
</g>
<g>
</g>
<g>
</g>
<g>
</g>
<g>
</g>
<g>
</g>
<g>
</g>
<g>
</g>
<g>
</g>
</svg>
