<?xml version="1.0" encoding="iso-8859-1"?>
<!-- Generator: Adobe Illustrator 19.0.0, SVG Export Plug-In . SVG Version: 6.00 Build 0)  -->
<svg version="1.1" id="Capa_1" xmlns="http://www.w3.org/2000/svg" xmlns:xlink="http://www.w3.org/1999/xlink" x="0px" y="0px"
	 viewBox="0 0 512 512" style="enable-background:new 0 0 512 512;" xml:space="preserve">
<linearGradient id="SVGID_1_" gradientUnits="userSpaceOnUse" x1="0" y1="257.9998" x2="511.9995" y2="257.9998" gradientTransform="matrix(1 0 0 -1 0 513.9995)">
	<stop  offset="0" style="stop-color:#80D8FF"/>
	<stop  offset="0.16" style="stop-color:#88D1FF"/>
	<stop  offset="0.413" style="stop-color:#9FBEFE"/>
	<stop  offset="0.725" style="stop-color:#C4A0FD"/>
	<stop  offset="1" style="stop-color:#EA80FC"/>
</linearGradient>
<path style="fill:url(#SVGID_1_);" d="M256,415C148.175,415,53.35,355.372,2.602,265.864c-3.469-6.119-3.469-13.609,0-19.729
	C53.364,156.603,148.211,97,256,97c107.825,0,202.65,59.628,253.398,149.136c3.469,6.119,3.469,13.609,0,19.729
	C458.636,355.397,363.789,415,256,415z M43.284,256C88.305,327.78,166.931,375,256,375c89.105,0,167.712-47.247,212.716-119
	C423.695,184.22,345.069,137,256,137C166.895,137,88.288,184.247,43.284,256z"/>
<linearGradient id="SVGID_2_" gradientUnits="userSpaceOnUse" x1="185.9998" y1="257.9998" x2="325.9998" y2="257.9998" gradientTransform="matrix(1 0 0 -1 0 513.9995)">
	<stop  offset="0" style="stop-color:#80D8FF"/>
	<stop  offset="0.16" style="stop-color:#88D1FF"/>
	<stop  offset="0.413" style="stop-color:#9FBEFE"/>
	<stop  offset="0.725" style="stop-color:#C4A0FD"/>
	<stop  offset="1" style="stop-color:#EA80FC"/>
</linearGradient>
<path style="fill:url(#SVGID_2_);" d="M256,326c-38.598,0-70-31.402-70-70s31.402-70,70-70s70,31.402,70,70S294.598,326,256,326z
	 M256,226c-16.542,0-30,13.458-30,30s13.458,30,30,30s30-13.458,30-30S272.542,226,256,226z"/>
<g>
</g>
<g>
</g>
<g>
</g>
<g>
</g>
<g>
</g>
<g>
</g>
<g>
</g>
<g>
</g>
<g>
</g>
<g>
</g>
<g>
</g>
<g>
</g>
<g>
</g>
<g>
</g>
<g>
</g>
</svg>
