<?xml version="1.0" encoding="iso-8859-1"?>
<!-- Generator: Adobe Illustrator 19.0.0, SVG Export Plug-In . SVG Version: 6.00 Build 0)  -->
<svg version="1.1" id="Capa_1" xmlns="http://www.w3.org/2000/svg" xmlns:xlink="http://www.w3.org/1999/xlink" x="0px" y="0px"
	 viewBox="0 0 512 512" style="enable-background:new 0 0 512 512;" xml:space="preserve">
<linearGradient id="SVGID_1_" gradientUnits="userSpaceOnUse" x1="0" y1="257.9999" x2="511.9999" y2="257.9999" gradientTransform="matrix(1 0 0 -1 0 513.9999)">
	<stop  offset="0" style="stop-color:#80D8FF"/>
	<stop  offset="0.16" style="stop-color:#88D1FF"/>
	<stop  offset="0.413" style="stop-color:#9FBEFE"/>
	<stop  offset="0.725" style="stop-color:#C4A0FD"/>
	<stop  offset="1" style="stop-color:#EA80FC"/>
</linearGradient>
<path style="fill:url(#SVGID_1_);" d="M508.006,105.908C504.23,100.867,498.299,97.9,492,97.9H115.283L104.3,60.381
	C101.805,51.857,93.988,46,85.106,46H20C8.954,46,0,54.954,0,66s8.954,20,20,20h50.121c2.921,9.979,76.797,262.346,79.781,272.54
	c2.495,8.523,10.313,14.381,19.194,14.381h254.107c8.882,0,16.699-5.857,19.194-14.381l68.797-235.021
	C512.964,117.475,511.782,110.949,508.006,105.908z M408.219,332.921H184.081L126.993,137.9h338.314L408.219,332.921z M269.29,439
	c0,14.912-12.088,27-27,27s-27-12.088-27-27s12.088-27,27-27C257.202,412,269.29,424.088,269.29,439z M377.008,439
	c0,14.912-12.088,27-27,27s-27-12.088-27-27s12.088-27,27-27S377.008,424.088,377.008,439z"/>
<g>
</g>
<g>
</g>
<g>
</g>
<g>
</g>
<g>
</g>
<g>
</g>
<g>
</g>
<g>
</g>
<g>
</g>
<g>
</g>
<g>
</g>
<g>
</g>
<g>
</g>
<g>
</g>
<g>
</g>
</svg>
