<?xml version="1.0" encoding="iso-8859-1"?>
<!-- Generator: Adobe Illustrator 19.0.0, SVG Export Plug-In . SVG Version: 6.00 Build 0)  -->
<svg version="1.1" id="Capa_1" xmlns="http://www.w3.org/2000/svg" xmlns:xlink="http://www.w3.org/1999/xlink" x="0px" y="0px"
	 viewBox="0 0 512 512" style="enable-background:new 0 0 512 512;" xml:space="preserve">
<linearGradient id="SVGID_1_" gradientUnits="userSpaceOnUse" x1="0" y1="258.0004" x2="512" y2="258.0004" gradientTransform="matrix(1 0 0 -1 0 514.0004)">
	<stop  offset="0" style="stop-color:#80D8FF"/>
	<stop  offset="0.16" style="stop-color:#88D1FF"/>
	<stop  offset="0.413" style="stop-color:#9FBEFE"/>
	<stop  offset="0.725" style="stop-color:#C4A0FD"/>
	<stop  offset="1" style="stop-color:#EA80FC"/>
</linearGradient>
<path style="fill:url(#SVGID_1_);" d="M256,63C117.293,63,0,136.053,0,233.216c0,50.652,32.299,97.345,89.112,129.537v66.246
	c0,8.1,4.885,15.399,12.373,18.488c7.48,3.089,16.097,1.359,21.81-4.387l48.657-48.934c26.946,6.152,55.163,9.268,84.048,9.268
	c138.632,0,256-73.015,256-170.217C512,135.954,394.554,63,256,63z M256,363.434c-29.514,0-58.165-3.609-85.158-10.727
	c-6.902-1.824-14.249,0.176-19.282,5.237l-22.447,22.575v-29.732c0-7.536-4.236-14.433-10.958-17.84
	C68.486,307.774,40,271.423,40,233.216C40,162.267,137.792,103,256,103c118.232,0,216,59.282,216,130.217
	C472,304.164,374.215,363.434,256,363.434z M283,233.25c0,14.912-12.088,27-27,27s-27-12.088-27-27s12.088-27,27-27
	C270.912,206.25,283,218.338,283,233.25z M165.49,233.25c0,14.912-12.088,27-27,27s-27-12.088-27-27s12.088-27,27-27
	C153.401,206.25,165.49,218.338,165.49,233.25z M373.51,206.25c14.912,0,27,12.088,27,27s-12.088,27-27,27s-27-12.088-27-27
	S358.599,206.25,373.51,206.25z"/>
<g>
</g>
<g>
</g>
<g>
</g>
<g>
</g>
<g>
</g>
<g>
</g>
<g>
</g>
<g>
</g>
<g>
</g>
<g>
</g>
<g>
</g>
<g>
</g>
<g>
</g>
<g>
</g>
<g>
</g>
</svg>
