<?xml version="1.0" encoding="iso-8859-1"?>
<!-- Generator: Adobe Illustrator 19.0.0, SVG Export Plug-In . SVG Version: 6.00 Build 0)  -->
<svg version="1.1" id="Capa_1" xmlns="http://www.w3.org/2000/svg" xmlns:xlink="http://www.w3.org/1999/xlink" x="0px" y="0px"
	 viewBox="0 0 512 512" style="enable-background:new 0 0 512 512;" xml:space="preserve">
<linearGradient id="SVGID_1_" gradientUnits="userSpaceOnUse" x1="10.0005" y1="258" x2="501.9995" y2="258" gradientTransform="matrix(1 0 0 -1 0 514)">
	<stop  offset="0" style="stop-color:#80D8FF"/>
	<stop  offset="0.16" style="stop-color:#88D1FF"/>
	<stop  offset="0.413" style="stop-color:#9FBEFE"/>
	<stop  offset="0.725" style="stop-color:#C4A0FD"/>
	<stop  offset="1" style="stop-color:#EA80FC"/>
</linearGradient>
<path style="fill:url(#SVGID_1_);" d="M256,512c-7.724,0-14.757-4.447-18.068-11.425l-36.635-77.191l-75.399,41.104
	c-6.792,3.702-15.112,3.156-21.362-1.405c-6.249-4.561-9.308-12.316-7.854-19.915l16.013-83.653l-85.196-10.744
	c-7.697-0.971-14.139-6.306-16.527-13.688c-2.388-7.381-0.291-15.478,5.379-20.772L78.794,256l-62.443-58.311
	c-5.67-5.295-7.767-13.392-5.379-20.772c2.388-7.382,8.83-12.717,16.527-13.688l85.196-10.744L96.681,68.832
	c-1.454-7.599,1.604-15.354,7.854-19.915c6.249-4.563,14.569-5.108,21.362-1.405l75.399,41.104l36.635-77.191
	C241.243,4.447,248.276,0,256,0s14.757,4.447,18.068,11.425l36.635,77.191l75.399-41.104c6.792-3.702,15.112-3.156,21.362,1.405
	c6.249,4.561,9.308,12.316,7.854,19.915l-16.013,83.653l85.196,10.744c7.697,0.971,14.139,6.306,16.527,13.688
	c2.388,7.381,0.291,15.478-5.379,20.772L433.206,256l62.443,58.311c5.67,5.295,7.767,13.392,5.379,20.772
	c-2.388,7.382-8.83,12.717-16.527,13.688l-85.196,10.744l16.013,83.653c1.454,7.599-1.604,15.354-7.854,19.915
	c-6.25,4.562-14.571,5.106-21.362,1.405l-75.399-41.104l-36.635,77.191C270.757,507.553,263.724,512,256,512z M228.364,387.124
	L256,445.354l27.636-58.23c4.924-10.377,17.568-14.476,27.641-8.985l56.794,30.962l-12.06-63.002
	c-2.171-11.341,5.699-22.159,17.141-23.603l64.011-8.072l-46.911-43.807c-8.467-7.906-8.458-21.337,0-29.234l46.911-43.807
	l-64.011-8.072c-11.453-1.445-19.309-12.272-17.141-23.603l12.06-63.002l-56.794,30.962c-10.086,5.497-22.723,1.379-27.641-8.985
	L256,66.646l-27.636,58.23c-4.924,10.375-17.568,14.477-27.641,8.985l-56.794-30.962l12.06,63.002
	c2.171,11.341-5.699,22.159-17.141,23.603l-64.011,8.072l46.911,43.807c8.467,7.906,8.458,21.337,0,29.234l-46.911,43.807
	l64.011,8.072c11.453,1.445,19.309,12.272,17.141,23.603l-12.06,63.002l56.794-30.962
	C210.81,372.642,223.443,376.755,228.364,387.124z"/>
<g>
</g>
<g>
</g>
<g>
</g>
<g>
</g>
<g>
</g>
<g>
</g>
<g>
</g>
<g>
</g>
<g>
</g>
<g>
</g>
<g>
</g>
<g>
</g>
<g>
</g>
<g>
</g>
<g>
</g>
</svg>
