<?xml version="1.0" encoding="iso-8859-1"?>
<!-- Generator: Adobe Illustrator 19.0.0, SVG Export Plug-In . SVG Version: 6.00 Build 0)  -->
<svg version="1.1" id="Capa_1" xmlns="http://www.w3.org/2000/svg" xmlns:xlink="http://www.w3.org/1999/xlink" x="0px" y="0px"
	 viewBox="0 0 512 512" style="enable-background:new 0 0 512 512;" xml:space="preserve">
<linearGradient id="SVGID_1_" gradientUnits="userSpaceOnUse" x1="0" y1="258" x2="512" y2="258" gradientTransform="matrix(1 0 0 -1 0 514)">
	<stop  offset="0" style="stop-color:#80D8FF"/>
	<stop  offset="0.16" style="stop-color:#88D1FF"/>
	<stop  offset="0.413" style="stop-color:#9FBEFE"/>
	<stop  offset="0.725" style="stop-color:#C4A0FD"/>
	<stop  offset="1" style="stop-color:#EA80FC"/>
</linearGradient>
<path style="fill:url(#SVGID_1_);" d="M462,127H334.755V65c0-11.046-8.954-20-20-20h-117.51c-11.046,0-20,8.954-20,20v62H50
	c-27.57,0-50,22.43-50,50v240c0,27.57,22.43,50,50,50h412c27.57,0,50-22.43,50-50V177C512,149.43,489.57,127,462,127z M217.245,85
	h77.511v42h-77.511L217.245,85L217.245,85z M50,167c2.179,0,406.397,0,412,0c5.514,0,10,4.486,10,10v100H314.755
	c-11.046,0-20,8.954-20,20v21h-77.511v-21c0-11.046-8.954-20-20-20H40V177C40,171.486,44.486,167,50,167z M462,427H50
	c-5.514,0-10-4.486-10-10V317h137.245v21c0,11.046,8.954,20,20,20h117.511c11.046,0,20-8.954,20-20v-21H472v100
	C472,422.514,467.514,427,462,427z"/>
<g>
</g>
<g>
</g>
<g>
</g>
<g>
</g>
<g>
</g>
<g>
</g>
<g>
</g>
<g>
</g>
<g>
</g>
<g>
</g>
<g>
</g>
<g>
</g>
<g>
</g>
<g>
</g>
<g>
</g>
</svg>
