<?xml version="1.0" encoding="iso-8859-1"?>
<!-- Generator: Adobe Illustrator 19.0.0, SVG Export Plug-In . SVG Version: 6.00 Build 0)  -->
<svg version="1.1" id="Capa_1" xmlns="http://www.w3.org/2000/svg" xmlns:xlink="http://www.w3.org/1999/xlink" x="0px" y="0px"
	 viewBox="0 0 512 512" style="enable-background:new 0 0 512 512;" xml:space="preserve">
<linearGradient id="SVGID_1_" gradientUnits="userSpaceOnUse" x1="4.342229e-004" y1="258.0014" x2="511.9997" y2="258.0014" gradientTransform="matrix(1 0 0 -1 0 514.0015)">
	<stop  offset="0" style="stop-color:#80D8FF"/>
	<stop  offset="0.16" style="stop-color:#88D1FF"/>
	<stop  offset="0.413" style="stop-color:#9FBEFE"/>
	<stop  offset="0.725" style="stop-color:#C4A0FD"/>
	<stop  offset="1" style="stop-color:#EA80FC"/>
</linearGradient>
<path style="fill:url(#SVGID_1_);" d="M506.143,168.057L343.944,5.857c-7.811-7.809-20.475-7.809-28.285,0
	c-7.81,7.811-7.81,20.475,0,28.285l6.133,6.133L185.089,176.977l-99.841,23.04c-7.084,1.636-12.724,6.986-14.728,13.975
	c-2.004,6.989-0.058,14.515,5.083,19.656l87.23,87.23L5.858,477.859c-7.81,7.811-7.81,20.474,0,28.284s20.474,7.81,28.285-0.001
	l156.975-156.98l87.235,87.235c5.147,5.147,12.673,7.085,19.656,5.082c6.988-2.004,12.339-7.643,13.975-14.728l23.04-99.841
	l136.701-136.702l6.133,6.133c7.812,7.811,20.474,7.809,28.285,0C513.952,188.532,513.952,175.868,506.143,168.057z
	 M281.121,382.596c-1.692-1.692-150.028-150.028-151.717-151.717l59.467-13.724l105.974,105.974L281.121,382.596z M316.826,288.541
	l-93.366-93.366L350.075,68.56l93.365,93.365L316.826,288.541z"/>
<g>
</g>
<g>
</g>
<g>
</g>
<g>
</g>
<g>
</g>
<g>
</g>
<g>
</g>
<g>
</g>
<g>
</g>
<g>
</g>
<g>
</g>
<g>
</g>
<g>
</g>
<g>
</g>
<g>
</g>
</svg>
