<?xml version="1.0" encoding="iso-8859-1"?>
<!-- Generator: Adobe Illustrator 19.0.0, SVG Export Plug-In . SVG Version: 6.00 Build 0)  -->
<svg version="1.1" id="Capa_1" xmlns="http://www.w3.org/2000/svg" xmlns:xlink="http://www.w3.org/1999/xlink" x="0px" y="0px"
	 viewBox="0 0 512 512" style="enable-background:new 0 0 512 512;" xml:space="preserve">
<linearGradient id="SVGID_1_" gradientUnits="userSpaceOnUse" x1="0" y1="258" x2="512" y2="258" gradientTransform="matrix(1 0 0 -1 0 514)">
	<stop  offset="0" style="stop-color:#80D8FF"/>
	<stop  offset="0.16" style="stop-color:#88D1FF"/>
	<stop  offset="0.413" style="stop-color:#9FBEFE"/>
	<stop  offset="0.725" style="stop-color:#C4A0FD"/>
	<stop  offset="1" style="stop-color:#EA80FC"/>
</linearGradient>
<path style="fill:url(#SVGID_1_);" d="M256,0C114.508,0,0,114.497,0,256c0,141.492,114.497,256,256,256
	c141.492,0,256-114.497,256-256C512,114.508,397.503,0,256,0z M256,472c-119.385,0-216-96.608-216-216c0-119.385,96.608-216,216-216
	c119.385,0,216,96.608,216,216C472,375.385,375.392,472,256,472z M122.257,256c0,11.046-8.954,20-20,20H72.88
	c-11.046,0-20-8.954-20-20s8.954-20,20-20h29.377C113.303,236,122.257,244.954,122.257,256z M460.1,256c0,11.046-8.954,20-20,20
	h-29.378c-11.046,0-20-8.954-20-20s8.954-20,20-20H440.1C451.146,236,460.1,244.954,460.1,256z M365.125,106.989l-14.688,25.441
	c-5.521,9.564-17.751,12.843-27.32,7.32c-9.565-5.522-12.844-17.754-7.32-27.32l14.688-25.441c5.523-9.565,17.754-12.841,27.32-7.32
	C367.37,85.191,370.648,97.423,365.125,106.989z M321.518,182.52l-28.344,49.094c4.613,7.009,7.308,15.387,7.308,24.387
	c0,24.527-19.954,44.481-44.481,44.481S211.519,280.527,211.519,256s19.954-44.481,44.481-44.481c0.854,0,1.701,0.03,2.543,0.078
	l28.334-49.077c5.522-9.565,17.754-12.845,27.32-7.32C323.763,160.722,327.041,172.953,321.518,182.52z M196.204,112.431
	c5.523,9.566,2.245,21.798-7.32,27.32c-9.56,5.52-21.796,2.25-27.32-7.32l-14.688-25.441c-5.523-9.566-2.245-21.798,7.32-27.32
	s21.798-2.247,27.32,7.32L196.204,112.431z"/>
<g>
</g>
<g>
</g>
<g>
</g>
<g>
</g>
<g>
</g>
<g>
</g>
<g>
</g>
<g>
</g>
<g>
</g>
<g>
</g>
<g>
</g>
<g>
</g>
<g>
</g>
<g>
</g>
<g>
</g>
</svg>
