<?xml version="1.0" encoding="iso-8859-1"?>
<!-- Generator: Adobe Illustrator 19.0.0, SVG Export Plug-In . SVG Version: 6.00 Build 0)  -->
<svg version="1.1" id="Capa_1" xmlns="http://www.w3.org/2000/svg" xmlns:xlink="http://www.w3.org/1999/xlink" x="0px" y="0px"
	 viewBox="0 0 511.999 511.999" style="enable-background:new 0 0 511.999 511.999;" xml:space="preserve">
<linearGradient id="SVGID_1_" gradientUnits="userSpaceOnUse" x1="104.9992" y1="257.9984" x2="407.0003" y2="257.9984" gradientTransform="matrix(1 0 0 -1 0 513.9982)">
	<stop  offset="0" style="stop-color:#80D8FF"/>
	<stop  offset="0.16" style="stop-color:#88D1FF"/>
	<stop  offset="0.413" style="stop-color:#9FBEFE"/>
	<stop  offset="0.725" style="stop-color:#C4A0FD"/>
	<stop  offset="1" style="stop-color:#EA80FC"/>
</linearGradient>
<path style="fill:url(#SVGID_1_);" d="M251.633,511.515C242.496,509.47,236,501.36,236,491.997V318.072H125
	c-6.849,0-13.221-3.504-16.889-9.287c-3.669-5.783-4.123-13.041-1.204-19.236l131-278.071c3.99-8.47,13.318-13.037,22.46-10.994
	C269.504,2.528,276,10.637,276,20v173.926h111c6.849,0,13.221,3.504,16.889,9.287c3.669,5.783,4.123,13.041,1.204,19.236
	l-131,278.071C270.127,508.938,260.832,513.569,251.633,511.515z M156.53,278.072H256c11.046,0,20,8.954,20,20v104.543
	l79.47-168.689H256c-11.046,0-20-8.954-20-20V109.383L156.53,278.072z"/>
<g>
</g>
<g>
</g>
<g>
</g>
<g>
</g>
<g>
</g>
<g>
</g>
<g>
</g>
<g>
</g>
<g>
</g>
<g>
</g>
<g>
</g>
<g>
</g>
<g>
</g>
<g>
</g>
<g>
</g>
</svg>
