<?xml version="1.0" encoding="iso-8859-1"?>
<!-- Generator: Adobe Illustrator 19.0.0, SVG Export Plug-In . SVG Version: 6.00 Build 0)  -->
<svg version="1.1" id="Capa_1" xmlns="http://www.w3.org/2000/svg" xmlns:xlink="http://www.w3.org/1999/xlink" x="0px" y="0px"
	 viewBox="0 0 512 512" style="enable-background:new 0 0 512 512;" xml:space="preserve">
<linearGradient id="SVGID_1_" gradientUnits="userSpaceOnUse" x1="8.671145e-004" y1="257.9997" x2="511.9994" y2="257.9997" gradientTransform="matrix(1 0 0 -1 0 513.9999)">
	<stop  offset="0" style="stop-color:#80D8FF"/>
	<stop  offset="0.16" style="stop-color:#88D1FF"/>
	<stop  offset="0.413" style="stop-color:#9FBEFE"/>
	<stop  offset="0.725" style="stop-color:#C4A0FD"/>
	<stop  offset="1" style="stop-color:#EA80FC"/>
</linearGradient>
<path style="fill:url(#SVGID_1_);" d="M274.143,477.393c-99.267-73.112-166.428-140.272-239.54-239.537l0,0
	c-46.1-62.591-46.137-124.889-0.103-170.922L85.724,15.71c23.455-23.452,62.34-20.196,81.59,6.752L206.97,77.98
	c15.306,21.427,12.901,50.494-5.721,69.116l-32.533,32.532c29.569,41.726,121.963,134.108,163.655,163.652l32.533-32.533
	c18.62-18.618,47.687-21.024,69.116-5.72l55.519,39.657c26.986,19.275,30.17,58.17,6.752,81.589l-51.225,51.224
	C395.69,526.873,332.038,520.034,274.143,477.393z M66.807,214.138c70.522,95.748,135.304,160.529,231.055,231.051
	c40.301,29.682,83.402,39.549,118.925,4.025l51.225-51.224c5.968-5.968,5.154-15.853-1.718-20.761l-55.519-39.656
	c-5.451-3.894-12.849-3.281-17.588,1.456l-43.293,43.292c-5.454,5.455-13.559,7.288-20.828,4.706
	c-38.823-13.776-190.305-165.231-204.096-204.092c-2.579-7.27-0.748-15.374,4.706-20.829l43.294-43.292
	c4.738-4.738,5.351-12.134,1.456-17.587l-39.657-55.518c-4.897-6.857-14.776-7.705-20.762-1.719L62.781,95.215
	C27.248,130.747,37.136,173.852,66.807,214.138L66.807,214.138z"/>
<g>
</g>
<g>
</g>
<g>
</g>
<g>
</g>
<g>
</g>
<g>
</g>
<g>
</g>
<g>
</g>
<g>
</g>
<g>
</g>
<g>
</g>
<g>
</g>
<g>
</g>
<g>
</g>
<g>
</g>
</svg>
