<?xml version="1.0" encoding="iso-8859-1"?>
<!-- Generator: Adobe Illustrator 19.0.0, SVG Export Plug-In . SVG Version: 6.00 Build 0)  -->
<svg version="1.1" id="Capa_1" xmlns="http://www.w3.org/2000/svg" xmlns:xlink="http://www.w3.org/1999/xlink" x="0px" y="0px"
	 viewBox="0 0 512 512" style="enable-background:new 0 0 512 512;" xml:space="preserve">
<linearGradient id="SVGID_1_" gradientUnits="userSpaceOnUse" x1="0" y1="258" x2="512" y2="258" gradientTransform="matrix(1 0 0 -1 0 514)">
	<stop  offset="0" style="stop-color:#80D8FF"/>
	<stop  offset="0.16" style="stop-color:#88D1FF"/>
	<stop  offset="0.413" style="stop-color:#9FBEFE"/>
	<stop  offset="0.725" style="stop-color:#C4A0FD"/>
	<stop  offset="1" style="stop-color:#EA80FC"/>
</linearGradient>
<path style="fill:url(#SVGID_1_);" d="M68.963,512C30.937,512,0,481.063,0,443.037v-80.299c0-38.025,30.937-68.962,68.962-68.962
	c38.026,0,68.963,30.937,68.963,68.962v80.299C137.925,481.063,106.989,512,68.963,512z M68.963,333.776
	c-15.97,0-28.963,12.992-28.963,28.962v80.299C40,459.007,52.993,472,68.962,472l0,0c15.97,0,28.962-12.993,28.962-28.963v-80.299
	C97.925,346.769,84.933,333.776,68.963,333.776z M256,512c-38.026,0-68.963-30.937-68.963-68.963V68.963
	C187.037,30.937,217.974,0,256,0s68.963,30.937,68.963,68.963v374.074C324.963,481.063,294.026,512,256,512z M256,40
	c-15.97,0-28.963,12.992-28.963,28.963v374.074C227.037,459.008,240.03,472,256,472s28.963-12.992,28.963-28.963V68.963
	C284.963,52.992,271.97,40,256,40z M443.038,512L443.038,512c-38.026,0-68.963-30.937-68.963-68.963V215.851
	c0-38.026,30.937-68.963,68.962-68.963c38.026,0,68.963,30.937,68.963,68.963v227.187C512,481.063,481.063,512,443.038,512z
	 M443.038,186.888c-15.97,0-28.963,12.992-28.963,28.963v227.187c0,15.97,12.993,28.963,28.962,28.963
	c15.97,0,28.963-12.993,28.963-28.963V215.851C472,199.88,459.007,186.888,443.038,186.888z"/>
<g>
</g>
<g>
</g>
<g>
</g>
<g>
</g>
<g>
</g>
<g>
</g>
<g>
</g>
<g>
</g>
<g>
</g>
<g>
</g>
<g>
</g>
<g>
</g>
<g>
</g>
<g>
</g>
<g>
</g>
</svg>
