<?xml version="1.0" encoding="iso-8859-1"?>
<!-- Generator: Adobe Illustrator 19.0.0, SVG Export Plug-In . SVG Version: 6.00 Build 0)  -->
<svg version="1.1" id="Capa_1" xmlns="http://www.w3.org/2000/svg" xmlns:xlink="http://www.w3.org/1999/xlink" x="0px" y="0px"
	 viewBox="0 0 512 512" style="enable-background:new 0 0 512 512;" xml:space="preserve">
<linearGradient id="SVGID_1_" gradientUnits="userSpaceOnUse" x1="0" y1="258" x2="512" y2="258" gradientTransform="matrix(1 0 0 -1 0 514)">
	<stop  offset="0" style="stop-color:#80D8FF"/>
	<stop  offset="0.16" style="stop-color:#88D1FF"/>
	<stop  offset="0.413" style="stop-color:#9FBEFE"/>
	<stop  offset="0.725" style="stop-color:#C4A0FD"/>
	<stop  offset="1" style="stop-color:#EA80FC"/>
</linearGradient>
<path style="fill:url(#SVGID_1_);" d="M304.959,107.429h-97.925c-11.046,0-20-8.954-20-20V20c0-11.046,8.954-20,20-20h97.925
	c11.046,0,20,8.954,20,20v67.429C324.959,98.475,316.005,107.429,304.959,107.429z M227.034,67.429h57.925V40h-57.925
	L227.034,67.429L227.034,67.429z M304.959,242.286h-97.925c-11.046,0-20-8.954-20-20v-67.429c0-11.046,8.954-20,20-20h97.925
	c11.046,0,20,8.954,20,20v67.429C324.959,233.332,316.005,242.286,304.959,242.286z M227.034,202.286h57.925v-27.429h-57.925
	L227.034,202.286L227.034,202.286z M304.959,377.143h-97.925c-11.046,0-20-8.954-20-20v-67.429c0-11.046,8.954-20,20-20h97.925
	c11.046,0,20,8.954,20,20v67.429C324.959,368.188,316.005,377.143,304.959,377.143z M227.034,337.143h57.925v-27.429h-57.925
	L227.034,337.143L227.034,337.143z M304.959,512h-97.925c-11.046,0-20-8.954-20-20v-67.429c0-11.046,8.954-20,20-20h97.925
	c11.046,0,20,8.954,20,20V492C324.959,503.046,316.005,512,304.959,512z M227.034,472h57.925v-27.429h-57.925L227.034,472
	L227.034,472z M117.925,377.143H20c-11.046,0-20-8.954-20-20v-67.429c0-11.046,8.954-20,20-20h97.925c11.046,0,20,8.954,20,20
	v67.429C137.925,368.188,128.971,377.143,117.925,377.143z M40,337.143h57.925v-27.429H40V337.143z M117.925,512H20
	c-11.046,0-20-8.954-20-20v-67.429c0-11.046,8.954-20,20-20h97.925c11.046,0,20,8.954,20,20V492
	C137.925,503.046,128.971,512,117.925,512z M40,472h57.925v-27.429H40V472z M492,242.286h-97.926c-11.046,0-20-8.954-20-20v-67.429
	c0-11.046,8.954-20,20-20H492c11.046,0,20,8.954,20,20v67.429C512,233.332,503.046,242.286,492,242.286z M414.074,202.286H472
	v-27.429h-57.926V202.286z M492,377.143h-97.926c-11.046,0-20-8.954-20-20v-67.429c0-11.046,8.954-20,20-20H492
	c11.046,0,20,8.954,20,20v67.429C512,368.188,503.046,377.143,492,377.143z M414.074,337.143H472v-27.429h-57.926V337.143z M492,512
	h-97.926c-11.046,0-20-8.954-20-20v-67.429c0-11.046,8.954-20,20-20H492c11.046,0,20,8.954,20,20V492
	C512,503.046,503.046,512,492,512z M414.074,472H472v-27.429h-57.926V472z"/>
<g>
</g>
<g>
</g>
<g>
</g>
<g>
</g>
<g>
</g>
<g>
</g>
<g>
</g>
<g>
</g>
<g>
</g>
<g>
</g>
<g>
</g>
<g>
</g>
<g>
</g>
<g>
</g>
<g>
</g>
</svg>
